<?xml version="1.0" encoding="UTF-8" standalone="no"?>
<!-- Created with Inkscape (http://www.inkscape.org/) -->

<svg
   xmlns:dc="http://purl.org/dc/elements/1.1/"
   xmlns:cc="http://creativecommons.org/ns#"
   xmlns:rdf="http://www.w3.org/1999/02/22-rdf-syntax-ns#"
   xmlns:svg="http://www.w3.org/2000/svg"
   xmlns="http://www.w3.org/2000/svg"
   xmlns:sodipodi="http://sodipodi.sourceforge.net/DTD/sodipodi-0.dtd"
   xmlns:inkscape="http://www.inkscape.org/namespaces/inkscape"
   width="27"
   height="17"
   id="svg3823"
   version="1.1"
   inkscape:version="0.48.2 r9819"
   sodipodi:docname="laser.svg"
   inkscape:export-filename="C:\Users\vkotcher\Documents\wende-project\C3\WENDE_C3_ExecutionCode\WENDE_C3_ExecutionCode\C3_Display\C3_App\laser.png"
   inkscape:export-xdpi="90"
   inkscape:export-ydpi="90">
  <defs
     id="defs3825" />
  <sodipodi:namedview
     id="base"
     pagecolor="#ffffff"
     bordercolor="#666666"
     borderopacity="1.0"
     inkscape:pageopacity="0.0"
     inkscape:pageshadow="2"
     inkscape:zoom="5.6111111"
     inkscape:cx="36"
     inkscape:cy="-10"
     inkscape:document-units="px"
     inkscape:current-layer="g4368"
     showgrid="false"
     inkscape:object-paths="true"
     inkscape:snap-global="false"
     inkscape:window-width="1280"
     inkscape:window-height="972"
     inkscape:window-x="1672"
     inkscape:window-y="48"
     inkscape:window-maximized="1" />
  <metadata
     id="metadata3828">
    <rdf:RDF>
      <cc:Work
         rdf:about="">
        <dc:format>image/svg+xml</dc:format>
        <dc:type
           rdf:resource="http://purl.org/dc/dcmitype/StillImage" />
        <dc:title></dc:title>
      </cc:Work>
    </rdf:RDF>
  </metadata>
  <g
     inkscape:label="Layer 1"
     inkscape:groupmode="layer"
     id="layer1"
     transform="translate(0,-1035.3622)">
    <g
       id="g4368"
       transform="matrix(0.58280827,0,0,0.58280827,7.7787329,436.18187)">
      <g
         id="g4374"
         transform="matrix(1.3013479,0.37275373,-0.37275373,1.3013479,386.51644,-317.67328)">
        <path
           style="fill:#ff0000;fill-opacity:1;stroke:none"
           d="m 24.530017,1041.0617 -0.189825,0.6144 c -0.02274,0 -0.05406,0 -0.07593,0 l -0.607441,-0.2553 0.379651,0.4607 c -0.02825,0.038 -0.05172,0.06 -0.07593,0.1032 l -15.148042,0.6658 15.148042,0.768 c 0.0068,0 -0.0072,0.038 0,0.052 l -0.151861,0.5121 0.265756,-0.4097 c 0.01341,0.027 0.02387,0.038 0.03796,0.052 l -0.07593,0.6658 0.30372,-0.5634 c 0.03737,0 0.07462,0.052 0.113895,0.052 0.07693,0 0.121245,-0.062 0.189825,-0.1032 l 0.03796,0 0.265755,0.4097 -0.07593,-0.5634 c 0.04057,-0.057 0.08293,-0.1331 0.113895,-0.2038 l 0.60744,-0.052 -0.493545,-0.461 c 0.0022,-0.035 0,-0.065 0,-0.1032 0,-0.027 5.49e-4,-0.033 0,-0.052 l 0.569475,-0.1032 -0.645405,-0.3586 c -0.02277,-0.068 -0.04525,-0.1467 -0.07593,-0.2037 l 0.30372,-0.4608 -0.53151,0.2554 c -0.05212,-0.043 -0.09278,-0.082 -0.15186,-0.1032 l -0.03796,-0.6146 z"
           id="path4361"
           inkscape:connector-curvature="0" />
        <rect
           style="fill:#000000;fill-opacity:1;stroke:none"
           id="rect3831"
           width="18.961164"
           height="2.8834951"
           x="-7.0776701"
           y="1041.2345"
           ry="0.68527919" />
      </g>
      <path
         style="fill:#000000;stroke:none;stroke-width:1px;stroke-linecap:butt;stroke-linejoin:miter;stroke-opacity:1;fill-opacity:1"
         d="M 10.92698,8.6794554 14.268564,16.866337 9.7908416,8.4455446 8.8217822,16.866337 8.6881188,8.1113861 4.8787129,15.863861 7.7190594,7.3428218 z"
         id="path4378"
         inkscape:connector-curvature="0"
         transform="matrix(1.7158301,0,0,1.7158301,-13.346984,1028.0917)" />
    </g>
  </g>
</svg>
