<?xml version="1.0" encoding="utf-8"?>
<!-- Generator: Adobe Illustrator 14.0.0, SVG Export Plug-In . SVG Version: 6.00 Build 43363)  -->
<!DOCTYPE svg PUBLIC "-//W3C//DTD SVG 1.1//EN" "http://www.w3.org/Graphics/SVG/1.1/DTD/svg11.dtd">
<svg version="1.1" id="Layer_1" xmlns="http://www.w3.org/2000/svg" xmlns:xlink="http://www.w3.org/1999/xlink" x="0px" y="0px"
	 width="250px" height="50px" viewBox="0 0 250 50" enable-background="new 0 0 250 50" xml:space="preserve">
<g id="Indicator_base">
	<g>
		
			<linearGradient id="SVGID_1_" gradientUnits="userSpaceOnUse" x1="181" y1="25.2378" x2="181" y2="-41.3065" gradientTransform="matrix(1 0 0 -1 -56 -96)">
			<stop  offset="0" style="stop-color:#8CC63F"/>
			<stop  offset="1" style="stop-color:#006837"/>
		</linearGradient>
		<path fill="url(#SVGID_1_)" d="M15-76C7.28-76,1-82.28,1-90v-20c0-7.72,6.28-14,14-14h220c7.721,0,14,6.28,14,14v20
			c0,7.72-6.279,14-14,14H15z"/>
		<path d="M235-123c7.168,0,13,5.832,13,13v20c0,7.168-5.832,13-13,13H15C7.832-77,2-82.832,2-90v-20c0-7.168,5.832-13,13-13H235
			 M235-125H15c-8.25,0-15,6.75-15,15v20c0,8.25,6.75,15,15,15h220c8.25,0,15-6.75,15-15v-20C250-118.25,243.25-125,235-125L235-125
			z"/>
	</g>
	<path opacity="0.1" fill="#FFFFFF" enable-background="new    " d="M81.75-85.5c73.098,0,136.482-11.338,167.839-27.919
		C248.029-120.033,242.073-125,235-125H15c-8.25,0-15,6.75-15,15v19.432C24.735-87.32,52.463-85.5,81.75-85.5z"/>
</g>
<g id="Layer_5">
	<g>
		
			<linearGradient id="SVGID_2_" gradientUnits="userSpaceOnUse" x1="181" y1="-142.2383" x2="181" y2="-75.694" gradientTransform="matrix(1 0 0 -1 -56 -96)">
			<stop  offset="0" style="stop-color:#8CC63F"/>
			<stop  offset="0.1206" style="stop-color:#72B53E"/>
			<stop  offset="0.3745" style="stop-color:#41943B"/>
			<stop  offset="0.5978" style="stop-color:#1E7C39"/>
			<stop  offset="0.7795" style="stop-color:#086D37"/>
			<stop  offset="0.897" style="stop-color:#006837"/>
		</linearGradient>
		<path fill="url(#SVGID_2_)" d="M15,49C7.28,49,1,42.72,1,35V15C1,7.28,7.28,1,15,1h220c7.721,0,14,6.28,14,14v20
			c0,7.72-6.279,14-14,14H15z"/>
		<path d="M235,2c7.168,0,13,5.832,13,13v20c0,7.168-5.832,13-13,13H15C7.832,48,2,42.168,2,35V15C2,7.832,7.832,2,15,2H235 M235,0
			H15C6.75,0,0,6.75,0,15v20c0,8.25,6.75,15,15,15h220c8.25,0,15-6.75,15-15V15C250,6.75,243.25,0,235,0L235,0z"/>
	</g>
	
		<linearGradient id="SVGID_3_" gradientUnits="userSpaceOnUse" x1="181" y1="-125.4434" x2="181" y2="-96" gradientTransform="matrix(1 0 0 -1 -56 -96)">
		<stop  offset="0" style="stop-color:#FDFDFE;stop-opacity:0"/>
		<stop  offset="0.0615" style="stop-color:#FDFDFE;stop-opacity:0.0615"/>
		<stop  offset="1" style="stop-color:#FDFDFE"/>
	</linearGradient>
	<path opacity="0.5" fill="url(#SVGID_3_)" enable-background="new    " d="M235,0H15C6.75,0,0,6.75,0,15v6.311
		c26.785,4.935,69.633,8.132,117.925,8.132c58.027,0,108.192-4.616,132.075-11.317V15C250,6.75,243.25,0,235,0z"/>
	<g>
		<path d="M235,2c7.168,0,13,5.832,13,13v20c0,7.168-5.832,13-13,13H15C7.832,48,2,42.168,2,35V15C2,7.832,7.832,2,15,2H235 M235,0
			H15C6.75,0,0,6.75,0,15v20c0,8.25,6.75,15,15,15h220c8.25,0,15-6.75,15-15V15C250,6.75,243.25,0,235,0L235,0z"/>
	</g>
</g>
<g id="Layer_6">
	<g>
		
			<linearGradient id="SVGID_4_" gradientUnits="userSpaceOnUse" x1="181" y1="-245" x2="181" y2="-195.0406" gradientTransform="matrix(1 0 0 -1 -56 -96)">
			<stop  offset="0" style="stop-color:#FF5E5E"/>
			<stop  offset="0.4803" style="stop-color:#D22525"/>
			<stop  offset="0.8287" style="stop-color:#B50000"/>
		</linearGradient>
		<path fill="url(#SVGID_4_)" d="M15,149c-7.72,0-14-6.279-14-14v-20c0-7.72,6.28-14,14-14h220c7.721,0,14,6.28,14,14v20
			c0,7.721-6.279,14-14,14H15z"/>
		<path d="M235,102c7.168,0,13,5.832,13,13v20c0,7.168-5.832,13-13,13H15c-7.168,0-13-5.832-13-13v-20c0-7.168,5.832-13,13-13H235
			 M235,100H15c-8.25,0-15,6.75-15,15v20c0,8.25,6.75,15,15,15h220c8.25,0,15-6.75,15-15v-20C250,106.75,243.25,100,235,100L235,100
			z"/>
	</g>
	
		<linearGradient id="SVGID_5_" gradientUnits="userSpaceOnUse" x1="180.5" y1="-225.4434" x2="180.5" y2="-196" gradientTransform="matrix(1 0 0 -1 -56 -96)">
		<stop  offset="0" style="stop-color:#FDFDFE;stop-opacity:0"/>
		<stop  offset="0.0615" style="stop-color:#FDFDFE;stop-opacity:0.0615"/>
		<stop  offset="1" style="stop-color:#FDFDFE"/>
	</linearGradient>
	<path opacity="0.5" fill="url(#SVGID_5_)" enable-background="new    " d="M234.5,100h-220c-8.25,0-15,6.75-15,15v6.311
		c26.785,4.936,69.633,8.133,117.926,8.133c58.026,0,108.191-4.616,132.074-11.317V115C249.5,106.75,242.75,100,234.5,100z"/>
	<g>
		<path d="M234.5,102c7.168,0,13,5.832,13,13v20c0,7.168-5.832,13-13,13h-220c-7.168,0-13-5.832-13-13v-20c0-7.168,5.832-13,13-13
			H234.5 M234.5,100h-220c-8.25,0-15,6.75-15,15v20c0,8.25,6.75,15,15,15h220c8.25,0,15-6.75,15-15v-20
			C249.5,106.75,242.75,100,234.5,100L234.5,100z"/>
	</g>
</g>
<g id="Layer_7">
	<g>
		
			<linearGradient id="SVGID_6_" gradientUnits="userSpaceOnUse" x1="181" y1="-345" x2="181" y2="-295.0406" gradientTransform="matrix(1 0 0 -1 -56 -96)">
			<stop  offset="0" style="stop-color:#FFFFFF"/>
			<stop  offset="0.2015" style="stop-color:#D1D1D1"/>
			<stop  offset="0.6336" style="stop-color:#747474"/>
			<stop  offset="0.8287" style="stop-color:#4F4F4F"/>
		</linearGradient>
		<path fill="url(#SVGID_6_)" d="M15,249c-7.72,0-14-6.279-14-14v-20c0-7.721,6.28-14,14-14h220c7.721,0,14,6.279,14,14v20
			c0,7.721-6.279,14-14,14H15z"/>
		<path d="M235,202c7.168,0,13,5.832,13,13v20c0,7.168-5.832,13-13,13H15c-7.168,0-13-5.832-13-13v-20c0-7.168,5.832-13,13-13H235
			 M235,200H15c-8.25,0-15,6.75-15,15v20c0,8.25,6.75,15,15,15h220c8.25,0,15-6.75,15-15v-20C250,206.75,243.25,200,235,200L235,200
			z"/>
	</g>
	
		<linearGradient id="SVGID_7_" gradientUnits="userSpaceOnUse" x1="180.5" y1="-325.4434" x2="180.5" y2="-296" gradientTransform="matrix(1 0 0 -1 -56 -96)">
		<stop  offset="0" style="stop-color:#FDFDFE;stop-opacity:0"/>
		<stop  offset="0.0615" style="stop-color:#FDFDFE;stop-opacity:0.0615"/>
		<stop  offset="1" style="stop-color:#FDFDFE"/>
	</linearGradient>
	<path opacity="0.5" fill="url(#SVGID_7_)" enable-background="new    " d="M234.5,200h-220c-8.25,0-15,6.75-15,15v6.311
		c26.785,4.936,69.633,8.133,117.926,8.133c58.026,0,108.191-4.616,132.074-11.317V215C249.5,206.75,242.75,200,234.5,200z"/>
	<g>
		<path d="M234.5,202c7.168,0,13,5.832,13,13v20c0,7.168-5.832,13-13,13h-220c-7.168,0-13-5.832-13-13v-20c0-7.168,5.832-13,13-13
			H234.5 M234.5,200h-220c-8.25,0-15,6.75-15,15v20c0,8.25,6.75,15,15,15h220c8.25,0,15-6.75,15-15v-20
			C249.5,206.75,242.75,200,234.5,200L234.5,200z"/>
	</g>
</g>
<g id="Icon_Guides">
</g>
<text transform="matrix(1 0 0 1 81.2168 -91.5107)" font-family="'MyriadPro-Bold'" font-size="28.9239">EXCELLENT</text>
<g>
	<path d="M63.667,28.482l-1.39,5.006h-4.542l5.932-19.499h5.785l6.075,19.499h-4.772l-1.504-5.006H63.667z M68.612,25.186
		l-1.215-4.138c-0.347-1.157-0.694-2.604-0.982-3.761h-0.059c-0.29,1.157-0.579,2.633-0.896,3.761l-1.157,4.138H68.612z"/>
	<path d="M91.667,32.968c-0.781,0.376-2.634,0.839-4.977,0.839c-6.741,0-10.212-4.224-10.212-9.779
		c0-6.653,4.745-10.328,10.646-10.328c2.284,0,4.021,0.435,4.802,0.868l-0.926,3.472c-0.868-0.376-2.112-0.723-3.703-0.723
		c-3.473,0-6.191,2.111-6.191,6.451c0,3.905,2.314,6.364,6.22,6.364c1.36,0,2.808-0.26,3.703-0.636L91.667,32.968z"/>
	<path d="M110.41,36.845c-2.778-0.811-5.093-1.679-7.726-2.749c-0.434-0.174-0.896-0.261-1.331-0.289
		c-4.427-0.289-8.535-3.529-8.535-9.924c0-5.873,3.703-10.241,9.547-10.241c5.932,0,9.201,4.514,9.201,9.866
		c0,4.426-2.055,7.551-4.601,8.708v0.115c1.476,0.435,3.153,0.812,4.687,1.101L110.41,36.845z M106.908,23.681
		c0-3.587-1.678-6.538-4.687-6.538s-4.745,2.951-4.745,6.625c0,3.703,1.765,6.539,4.745,6.539
		C105.201,30.307,106.908,27.5,106.908,23.681z"/>
	<path d="M118.854,13.989v11.196c0,3.385,1.301,5.092,3.528,5.092c2.313,0,3.587-1.62,3.587-5.092V13.989h4.398v10.936
		c0,6.019-3.038,8.882-8.131,8.882c-4.918,0-7.781-2.748-7.781-8.938V13.989H118.854z"/>
	<path d="M138.607,13.989v19.499h-4.396V13.989H138.607z"/>
	<path d="M142.424,14.25c1.418-0.232,3.501-0.406,5.873-0.406c2.895,0,4.918,0.435,6.307,1.534c1.188,0.926,1.823,2.314,1.823,4.108
		c0,2.459-1.765,4.166-3.442,4.773v0.086c1.359,0.551,2.111,1.823,2.604,3.617c0.607,2.228,1.186,4.772,1.563,5.524h-4.514
		c-0.289-0.578-0.781-2.141-1.331-4.541c-0.55-2.459-1.389-3.096-3.211-3.125h-1.302v7.666h-4.369V14.25L142.424,14.25z
		 M146.793,22.639h1.734c2.199,0,3.502-1.099,3.502-2.806c0-1.765-1.215-2.69-3.24-2.69c-1.07,0-1.678,0.058-1.996,0.145V22.639z"/>
	<path d="M171.177,25.243h-7.175v4.629h8.014v3.616h-12.41V13.989h12.006v3.616h-7.608v4.051h7.175L171.177,25.243L171.177,25.243z"
		/>
	<path d="M175.021,14.278c1.619-0.261,3.731-0.435,5.93-0.435c3.732,0,6.162,0.695,8.015,2.084c2.024,1.504,3.299,3.905,3.299,7.348
		c0,3.732-1.36,6.308-3.212,7.898c-2.054,1.707-5.207,2.517-9.025,2.517c-2.285,0-3.936-0.145-5.006-0.289V14.278L175.021,14.278z
		 M179.418,30.161c0.376,0.087,1.013,0.087,1.533,0.087c4.021,0.029,6.654-2.17,6.654-6.828c0-4.05-2.373-6.19-6.191-6.19
		c-0.954,0-1.62,0.087-1.996,0.173V30.161L179.418,30.161z"/>
</g>
<text transform="matrix(1 0 0 1 81.2168 133.4883)" font-family="'MyriadPro-Bold'" font-size="28.9239">OFFLINE</text>
<text transform="matrix(1 0 0 1 81.2168 233.4883)" font-family="'MyriadPro-Bold'" font-size="28.9239">UNKNOWN</text>
<g id="Layer_3">
	<g>
		<path d="M46.24-100"/>
	</g>
</g>
<g>
	<rect x="23.24" y="-97.715" width="3.52" height="17.619"/>
	<rect x="33.86" y="-103.905" width="3.52" height="23.809"/>
	<rect x="44.48" y="-107.714" width="3.521" height="27.619"/>
	<rect x="55.102" y="-111.524" width="3.519" height="31.428"/>
	<rect x="65.722" y="-120.095" width="3.519" height="40"/>
	<path fill="none" d="M46.24-100"/>
</g>
</svg>
