<?xml version="1.0" encoding="utf-8"?>
<!-- Generator: Adobe Illustrator 14.0.0, SVG Export Plug-In . SVG Version: 6.00 Build 43363)  -->
<!DOCTYPE svg PUBLIC "-//W3C//DTD SVG 1.1//EN" "http://www.w3.org/Graphics/SVG/1.1/DTD/svg11.dtd">
<svg version="1.1" xmlns="http://www.w3.org/2000/svg" xmlns:xlink="http://www.w3.org/1999/xlink" x="0px" y="0px" width="250px"
	 height="50px" viewBox="0 0 250 50" enable-background="new 0 0 250 50" xml:space="preserve">
<g id="Indicator_base">
	<g>
		<linearGradient id="SVGID_1_" gradientUnits="userSpaceOnUse" x1="124.9995" y1="3.7617" x2="124.9995" y2="70.3067">
			<stop  offset="0" style="stop-color:#8CC63F"/>
			<stop  offset="1" style="stop-color:#006837"/>
		</linearGradient>
		<path fill="url(#SVGID_1_)" d="M15,49C7.28,49,1,42.72,1,35V15C1,7.28,7.28,1,15,1h220c7.72,0,14,6.28,14,14v20
			c0,7.72-6.28,14-14,14H15z"/>
		<path d="M235,2c7.168,0,13,5.832,13,13v20c0,7.168-5.832,13-13,13H15C7.832,48,2,42.168,2,35V15C2,7.832,7.832,2,15,2H235 M235,0
			H15C6.75,0,0,6.75,0,15v20c0,8.25,6.75,15,15,15h220c8.25,0,15-6.75,15-15V15C250,6.75,243.25,0,235,0L235,0z"/>
	</g>
	<path opacity="0.1" fill="#FFFFFF" d="M81.75,39.5c73.097,0,136.482-11.338,167.839-27.919C248.029,4.967,242.073,0,235,0H15
		C6.75,0,0,6.75,0,15v19.432C24.735,37.68,52.463,39.5,81.75,39.5z"/>
	<g>
		<linearGradient id="SVGID_2_" gradientUnits="userSpaceOnUse" x1="124.9995" y1="3.7617" x2="124.9995" y2="70.3067">
			<stop  offset="0" style="stop-color:#8CC63F"/>
			<stop  offset="1" style="stop-color:#006837"/>
		</linearGradient>
		<path fill="url(#SVGID_2_)" d="M15,49C7.28,49,1,42.72,1,35V15C1,7.28,7.28,1,15,1h220c7.72,0,14,6.28,14,14v20
			c0,7.72-6.28,14-14,14H15z"/>
		<path d="M235,2c7.168,0,13,5.832,13,13v20c0,7.168-5.832,13-13,13H15C7.832,48,2,42.168,2,35V15C2,7.832,7.832,2,15,2H235 M235,0
			H15C6.75,0,0,6.75,0,15v20c0,8.25,6.75,15,15,15h220c8.25,0,15-6.75,15-15V15C250,6.75,243.25,0,235,0L235,0z"/>
	</g>
</g>
<g id="Icon_Guides">
</g>
<g id="Layer_2">
	<g id="Excellent" display="none">
		<text transform="matrix(1 0 0 1 75 33.4893)" display="inline" font-family="'MyriadPro-Bold'" font-size="28.9239">EXCELLENT</text>
		<g display="inline">
			<rect x="17.024" y="27.285" width="3.519" height="17.619"/>
			<rect x="27.644" y="21.095" width="3.519" height="23.809"/>
			<rect x="38.264" y="17.286" width="3.52" height="27.619"/>
			<rect x="48.885" y="13.476" width="3.519" height="31.428"/>
			<rect x="59.505" y="4.905" width="3.519" height="40"/>
			<path fill="none" d="M40.024,25"/>
		</g>
	</g>
	<g id="E-Excellent">
		<g>
			<path d="M88.511,25.244h-7.175v4.629h8.014v3.616H76.938V13.99h12.006v3.616h-7.608v4.05h7.175V25.244z"/>
			<path d="M102.625,33.489l-1.765-3.529c-0.723-1.36-1.186-2.372-1.736-3.501h-0.058c-0.405,1.129-0.896,2.141-1.533,3.501
				l-1.591,3.529h-5.034l5.642-9.865l-5.439-9.634h5.063l1.707,3.558c0.579,1.186,1.013,2.141,1.476,3.24h0.058
				c0.463-1.244,0.839-2.112,1.331-3.24l1.649-3.558h5.034l-5.497,9.518l5.786,9.981H102.625z"/>
			<path d="M123.277,32.969c-0.781,0.376-2.633,0.839-4.976,0.839c-6.741,0-10.212-4.224-10.212-9.779
				c0-6.654,4.745-10.328,10.646-10.328c2.285,0,4.021,0.434,4.802,0.868l-0.926,3.472c-0.868-0.376-2.112-0.723-3.703-0.723
				c-3.472,0-6.191,2.112-6.191,6.452c0,3.905,2.314,6.364,6.22,6.364c1.36,0,2.807-0.26,3.703-0.636L123.277,32.969z"/>
			<path d="M137.796,25.244h-7.174v4.629h8.013v3.616h-12.41V13.99h12.006v3.616h-7.608v4.05h7.174V25.244z"/>
			<path d="M141.669,13.99h4.397v15.796h7.753v3.703h-12.15V13.99z"/>
			<path d="M156.449,13.99h4.397v15.796h7.753v3.703h-12.15V13.99z"/>
			<path d="M182.801,25.244h-7.175v4.629h8.014v3.616h-12.411V13.99h12.006v3.616h-7.608v4.05h7.175V25.244z"/>
			<path d="M186.645,33.489V13.99h5.15l4.05,7.146c1.157,2.054,2.285,4.484,3.183,6.683h0.058c-0.261-2.574-0.347-5.207-0.347-8.158
				v-5.67h4.05v19.499h-4.629l-4.166-7.522c-1.157-2.083-2.459-4.6-3.385-6.885h-0.116c0.145,2.604,0.203,5.352,0.203,8.534v5.873
				H186.645z"/>
			<path d="M210.392,17.693h-5.266V13.99h14.986v3.703h-5.323v15.796h-4.397V17.693z"/>
		</g>
		<g>
			<rect x="17.024" y="27.285" width="3.519" height="17.619"/>
			<rect x="27.644" y="21.095" width="3.519" height="23.809"/>
			<rect x="38.264" y="17.286" width="3.52" height="27.619"/>
			<rect x="48.885" y="13.476" width="3.519" height="31.428"/>
			<rect x="59.505" y="4.905" width="3.519" height="40"/>
			<path fill="none" d="M40.024,25"/>
		</g>
	</g>
</g>
</svg>
