<?xml version="1.0" encoding="utf-8"?>
<!-- Generator: Adobe Illustrator 14.0.0, SVG Export Plug-In . SVG Version: 6.00 Build 43363)  -->
<!DOCTYPE svg PUBLIC "-//W3C//DTD SVG 1.1//EN" "http://www.w3.org/Graphics/SVG/1.1/DTD/svg11.dtd">
<svg version="1.1" xmlns="http://www.w3.org/2000/svg" xmlns:xlink="http://www.w3.org/1999/xlink" x="0px" y="0px" width="250px"
	 height="50px" viewBox="0 0 250 50" enable-background="new 0 0 250 50" xml:space="preserve">
<g id="Indicator_base">
	<g>
		<linearGradient id="SVGID_1_" gradientUnits="userSpaceOnUse" x1="124.9995" y1="-321.2383" x2="124.9995" y2="-254.6933">
			<stop  offset="0" style="stop-color:#8CC63F"/>
			<stop  offset="1" style="stop-color:#006837"/>
		</linearGradient>
		<path fill="url(#SVGID_1_)" d="M15-276c-7.72,0-14-6.28-14-14v-20c0-7.72,6.28-14,14-14h220c7.72,0,14,6.28,14,14v20
			c0,7.72-6.28,14-14,14H15z"/>
		<path d="M235-323c7.168,0,13,5.832,13,13v20c0,7.168-5.832,13-13,13H15c-7.168,0-13-5.832-13-13v-20c0-7.168,5.832-13,13-13H235
			 M235-325H15c-8.25,0-15,6.75-15,15v20c0,8.25,6.75,15,15,15h220c8.25,0,15-6.75,15-15v-20C250-318.25,243.25-325,235-325L235-325
			z"/>
	</g>
	<path opacity="0.1" fill="#FFFFFF" d="M81.75-285.5c73.097,0,136.482-11.338,167.839-27.919C248.029-320.033,242.073-325,235-325
		H15c-8.25,0-15,6.75-15,15v19.432C24.735-287.32,52.463-285.5,81.75-285.5z"/>
</g>
<g id="Layer_5">
	<g>
		<linearGradient id="SVGID_2_" gradientUnits="userSpaceOnUse" x1="125.0005" y1="-153.7617" x2="125.0005" y2="-220.306">
			<stop  offset="0" style="stop-color:#8CC63F"/>
			<stop  offset="0.1206" style="stop-color:#72B53E"/>
			<stop  offset="0.3745" style="stop-color:#41943B"/>
			<stop  offset="0.5978" style="stop-color:#1E7C39"/>
			<stop  offset="0.7795" style="stop-color:#086D37"/>
			<stop  offset="0.897" style="stop-color:#006837"/>
		</linearGradient>
		<path fill="url(#SVGID_2_)" d="M15-151c-7.72,0-14-6.28-14-14v-20c0-7.72,6.28-14,14-14h220c7.72,0,14,6.28,14,14v20
			c0,7.72-6.28,14-14,14H15z"/>
		<path d="M235-198c7.168,0,13,5.832,13,13v20c0,7.168-5.832,13-13,13H15c-7.168,0-13-5.832-13-13v-20c0-7.168,5.832-13,13-13H235
			 M235-200H15c-8.25,0-15,6.75-15,15v20c0,8.25,6.75,15,15,15h220c8.25,0,15-6.75,15-15v-20C250-193.25,243.25-200,235-200L235-200
			z"/>
	</g>
	<linearGradient id="SVGID_3_" gradientUnits="userSpaceOnUse" x1="125.0005" y1="-170.5576" x2="125.0005" y2="-200">
		<stop  offset="0" style="stop-color:#FDFDFE;stop-opacity:0"/>
		<stop  offset="0.0615" style="stop-color:#FDFDFE;stop-opacity:0.0615"/>
		<stop  offset="1" style="stop-color:#FDFDFE"/>
	</linearGradient>
	<path opacity="0.5" fill="url(#SVGID_3_)" d="M235-200H15c-8.25,0-15,6.75-15,15v6.311c26.785,4.935,69.633,8.132,117.925,8.132
		c58.027,0,108.192-4.616,132.075-11.317V-185C250-193.25,243.25-200,235-200z"/>
	<g>
		<path d="M235-198c7.168,0,13,5.832,13,13v20c0,7.168-5.832,13-13,13H15c-7.168,0-13-5.832-13-13v-20c0-7.168,5.832-13,13-13H235
			 M235-200H15c-8.25,0-15,6.75-15,15v20c0,8.25,6.75,15,15,15h220c8.25,0,15-6.75,15-15v-20C250-193.25,243.25-200,235-200L235-200
			z"/>
	</g>
</g>
<g id="Layer_6">
	<g>
		<linearGradient id="SVGID_4_" gradientUnits="userSpaceOnUse" x1="125.0005" y1="-51" x2="125.0005" y2="-100.9594">
			<stop  offset="0" style="stop-color:#FF5E5E"/>
			<stop  offset="0.4803" style="stop-color:#D22525"/>
			<stop  offset="0.8287" style="stop-color:#B50000"/>
		</linearGradient>
		<path fill="url(#SVGID_4_)" d="M15-51C7.28-51,1-57.28,1-65v-20c0-7.72,6.28-14,14-14h220c7.72,0,14,6.28,14,14v20
			c0,7.72-6.28,14-14,14H15z"/>
		<path d="M235-98c7.168,0,13,5.832,13,13v20c0,7.168-5.832,13-13,13H15C7.832-52,2-57.832,2-65v-20c0-7.168,5.832-13,13-13H235
			 M235-100H15c-8.25,0-15,6.75-15,15v20c0,8.25,6.75,15,15,15h220c8.25,0,15-6.75,15-15v-20C250-93.25,243.25-100,235-100L235-100z
			"/>
	</g>
	<linearGradient id="SVGID_5_" gradientUnits="userSpaceOnUse" x1="124.5005" y1="-70.5576" x2="124.5005" y2="-100">
		<stop  offset="0" style="stop-color:#FDFDFE;stop-opacity:0"/>
		<stop  offset="0.0615" style="stop-color:#FDFDFE;stop-opacity:0.0615"/>
		<stop  offset="1" style="stop-color:#FDFDFE"/>
	</linearGradient>
	<path opacity="0.5" fill="url(#SVGID_5_)" d="M234.5-100h-220c-8.25,0-15,6.75-15,15v6.311
		c26.785,4.935,69.633,8.132,117.926,8.132c58.026,0,108.191-4.616,132.074-11.317V-85C249.5-93.25,242.75-100,234.5-100z"/>
	<g>
		<path d="M234.5-98c7.168,0,13,5.832,13,13v20c0,7.168-5.832,13-13,13h-220c-7.168,0-13-5.832-13-13v-20c0-7.168,5.832-13,13-13
			H234.5 M234.5-100h-220c-8.25,0-15,6.75-15,15v20c0,8.25,6.75,15,15,15h220c8.25,0,15-6.75,15-15v-20
			C249.5-93.25,242.75-100,234.5-100L234.5-100z"/>
	</g>
</g>
<g id="Layer_7">
	<g>
		<linearGradient id="SVGID_6_" gradientUnits="userSpaceOnUse" x1="125.0005" y1="49" x2="125.0005" y2="-0.9594">
			<stop  offset="0" style="stop-color:#FFFFFF"/>
			<stop  offset="0.2015" style="stop-color:#D1D1D1"/>
			<stop  offset="0.6336" style="stop-color:#747474"/>
			<stop  offset="0.8287" style="stop-color:#4F4F4F"/>
		</linearGradient>
		<path fill="url(#SVGID_6_)" d="M15,49C7.28,49,1,42.72,1,35V15C1,7.28,7.28,1,15,1h220c7.72,0,14,6.28,14,14v20
			c0,7.72-6.28,14-14,14H15z"/>
		<path d="M235,2c7.168,0,13,5.832,13,13v20c0,7.168-5.832,13-13,13H15C7.832,48,2,42.168,2,35V15C2,7.832,7.832,2,15,2H235 M235,0
			H15C6.75,0,0,6.75,0,15v20c0,8.25,6.75,15,15,15h220c8.25,0,15-6.75,15-15V15C250,6.75,243.25,0,235,0L235,0z"/>
	</g>
	<linearGradient id="SVGID_7_" gradientUnits="userSpaceOnUse" x1="124.5005" y1="29.4424" x2="124.5005" y2="0">
		<stop  offset="0" style="stop-color:#FDFDFE;stop-opacity:0"/>
		<stop  offset="0.0615" style="stop-color:#FDFDFE;stop-opacity:0.0615"/>
		<stop  offset="1" style="stop-color:#FDFDFE"/>
	</linearGradient>
	<path opacity="0.5" fill="url(#SVGID_7_)" d="M234.5,0h-220c-8.25,0-15,6.75-15,15v6.311c26.785,4.935,69.633,8.132,117.926,8.132
		c58.026,0,108.191-4.616,132.074-11.317V15C249.5,6.75,242.75,0,234.5,0z"/>
	<g>
		<path d="M234.5,2c7.168,0,13,5.832,13,13v20c0,7.168-5.832,13-13,13h-220c-7.168,0-13-5.832-13-13V15c0-7.168,5.832-13,13-13
			H234.5 M234.5,0h-220c-8.25,0-15,6.75-15,15v20c0,8.25,6.75,15,15,15h220c8.25,0,15-6.75,15-15V15C249.5,6.75,242.75,0,234.5,0
			L234.5,0z"/>
	</g>
</g>
<g id="Icon_Guides">
</g>
<g id="Layer_2">
	<text transform="matrix(1 0 0 1 75 -291.5107)" font-family="'MyriadPro-Bold'" font-size="28.9239">EXCELLENT</text>
	<g>
		<path d="M81.452-171.517l-1.389,5.005h-4.542l5.931-19.499h5.786l6.075,19.499H88.54l-1.504-5.005H81.452z M86.398-174.814
			l-1.215-4.138c-0.347-1.157-0.694-2.604-0.983-3.761h-0.058c-0.29,1.157-0.579,2.633-0.897,3.761l-1.157,4.138H86.398z"/>
		<path d="M109.452-167.032c-0.781,0.376-2.633,0.839-4.976,0.839c-6.741,0-10.212-4.224-10.212-9.779
			c0-6.653,4.745-10.328,10.646-10.328c2.285,0,4.021,0.435,4.802,0.868l-0.926,3.472c-0.868-0.376-2.112-0.723-3.703-0.723
			c-3.472,0-6.191,2.111-6.191,6.451c0,3.905,2.314,6.364,6.22,6.364c1.36,0,2.807-0.26,3.703-0.636L109.452-167.032z"/>
		<path d="M128.195-163.155c-2.778-0.811-5.092-1.679-7.725-2.749c-0.434-0.174-0.897-0.261-1.331-0.289
			c-4.427-0.289-8.535-3.529-8.535-9.924c0-5.873,3.703-10.241,9.547-10.241c5.931,0,9.2,4.514,9.2,9.866
			c0,4.426-2.054,7.55-4.6,8.708v0.115c1.476,0.434,3.153,0.811,4.687,1.1L128.195-163.155z M124.694-176.319
			c0-3.587-1.678-6.538-4.687-6.538s-4.745,2.951-4.745,6.625c0,3.703,1.765,6.538,4.745,6.538S124.694-172.5,124.694-176.319z"/>
		<path d="M136.638-186.011v11.196c0,3.385,1.302,5.092,3.529,5.092c2.314,0,3.587-1.62,3.587-5.092v-11.196h4.398v10.936
			c0,6.018-3.038,8.882-8.13,8.882c-4.918,0-7.782-2.749-7.782-8.939v-10.878H136.638z"/>
		<path d="M156.393-186.011v19.499h-4.397v-19.499H156.393z"/>
		<path d="M160.209-185.75c1.418-0.232,3.501-0.406,5.873-0.406c2.894,0,4.918,0.435,6.307,1.534
			c1.187,0.926,1.823,2.314,1.823,4.108c0,2.459-1.765,4.166-3.443,4.773v0.086c1.36,0.551,2.112,1.823,2.604,3.617
			c0.607,2.228,1.186,4.773,1.562,5.525h-4.513c-0.289-0.579-0.781-2.141-1.331-4.542c-0.55-2.459-1.389-3.096-3.211-3.124h-1.302
			v7.666h-4.369V-185.75z M164.578-177.361h1.735c2.199,0,3.501-1.099,3.501-2.806c0-1.765-1.215-2.69-3.24-2.69
			c-1.07,0-1.678,0.058-1.996,0.145V-177.361z"/>
		<path d="M188.962-174.757h-7.175v4.629h8.014v3.616H177.39v-19.499h12.006v3.616h-7.608v4.051h7.175V-174.757z"/>
		<path d="M192.806-185.722c1.62-0.261,3.732-0.435,5.931-0.435c3.732,0,6.162,0.695,8.014,2.084
			c2.025,1.504,3.299,3.905,3.299,7.348c0,3.732-1.36,6.308-3.212,7.898c-2.054,1.707-5.207,2.517-9.026,2.517
			c-2.285,0-3.935-0.145-5.005-0.289V-185.722z M197.203-169.839c0.376,0.087,1.013,0.087,1.533,0.087
			c4.021,0.029,6.654-2.17,6.654-6.828c0-4.05-2.372-6.19-6.191-6.19c-0.954,0-1.62,0.087-1.996,0.173V-169.839z"/>
	</g>
	<text transform="matrix(1 0 0 1 75 -66.5117)" font-family="'MyriadPro-Bold'" font-size="28.9239">OFFLINE</text>
	<g>
		<path d="M81.307,13.989v11.196c0,3.385,1.302,5.092,3.53,5.092c2.314,0,3.587-1.62,3.587-5.092V13.989h4.397v10.936
			c0,6.018-3.038,8.882-8.129,8.882c-4.918,0-7.783-2.749-7.783-8.939V13.989H81.307z"/>
		<path d="M96.635,33.488V13.989h5.15l4.05,7.146c1.157,2.055,2.286,4.484,3.183,6.683h0.058c-0.26-2.574-0.347-5.207-0.347-8.158
			v-5.67h4.05v19.499h-4.629l-4.166-7.521c-1.157-2.084-2.459-4.601-3.385-6.886h-0.116c0.145,2.604,0.203,5.353,0.203,8.534v5.873
			H96.635z"/>
		<path d="M116.593,13.989h4.368v8.621h0.058c0.434-0.752,0.897-1.446,1.36-2.141l4.397-6.48h5.438l-6.451,8.303l6.77,11.196h-5.121
			l-4.802-8.419l-1.649,2.055v6.364h-4.368V13.989z"/>
		<path d="M134.352,33.488V13.989h5.15l4.05,7.146c1.157,2.055,2.285,4.484,3.183,6.683h0.058c-0.261-2.574-0.347-5.207-0.347-8.158
			v-5.67h4.05v19.499h-4.629l-4.166-7.521c-1.157-2.084-2.459-4.601-3.385-6.886h-0.116c0.145,2.604,0.203,5.353,0.203,8.534v5.873
			H134.352z"/>
		<path d="M172.159,23.536c0,6.423-3.848,10.271-9.576,10.271c-5.757,0-9.171-4.368-9.171-9.952c0-5.845,3.761-10.213,9.489-10.213
			C168.89,13.642,172.159,18.126,172.159,23.536z M158.07,23.768c0,3.848,1.793,6.538,4.744,6.538c2.979,0,4.687-2.835,4.687-6.625
			c0-3.529-1.648-6.538-4.687-6.538C159.806,17.143,158.07,19.978,158.07,23.768z"/>
		<path d="M177.998,33.488l-4.629-19.499h4.716l1.476,8.014c0.434,2.343,0.839,4.86,1.157,6.827h0.058
			c0.318-2.111,0.781-4.455,1.273-6.885l1.648-7.956h4.688l1.563,8.216c0.434,2.285,0.752,4.369,1.041,6.538h0.058
			c0.29-2.169,0.724-4.455,1.129-6.798l1.591-7.956h4.484l-5.034,19.499h-4.773l-1.649-8.39c-0.376-1.968-0.694-3.79-0.926-6.018
			h-0.058c-0.347,2.198-0.665,4.05-1.128,6.018l-1.852,8.39H177.998z"/>
		<path d="M200.528,33.488V13.989h5.149l4.051,7.146c1.157,2.055,2.285,4.484,3.183,6.683h0.058
			c-0.261-2.574-0.348-5.207-0.348-8.158v-5.67h4.051v19.499h-4.629l-4.166-7.521c-1.157-2.084-2.459-4.601-3.385-6.886h-0.116
			c0.146,2.604,0.203,5.353,0.203,8.534v5.873H200.528z"/>
	</g>
	<g id="Layer_3">
		<g>
			<path d="M40.024-300"/>
		</g>
	</g>
	<g>
		<rect x="17.024" y="-297.715" width="3.519" height="17.619"/>
		<rect x="27.644" y="-303.905" width="3.519" height="23.809"/>
		<rect x="38.264" y="-307.714" width="3.52" height="27.619"/>
		<rect x="48.885" y="-311.524" width="3.519" height="31.428"/>
		<rect x="59.505" y="-320.095" width="3.519" height="40"/>
		<path fill="none" d="M40.024-300"/>
	</g>
</g>
</svg>
