<?xml version="1.0" encoding="utf-8"?>
<!-- Generator: Adobe Illustrator 14.0.0, SVG Export Plug-In . SVG Version: 6.00 Build 43363)  -->
<!DOCTYPE svg PUBLIC "-//W3C//DTD SVG 1.1//EN" "http://www.w3.org/Graphics/SVG/1.1/DTD/svg11.dtd">
<svg version="1.1" xmlns="http://www.w3.org/2000/svg" xmlns:xlink="http://www.w3.org/1999/xlink" x="0px" y="0px" width="250px"
	 height="50px" viewBox="0 0 250 50" enable-background="new 0 0 250 50" xml:space="preserve">
<g id="Indicator_base">
	<g>
		<linearGradient id="SVGID_1_" gradientUnits="userSpaceOnUse" x1="124.9995" y1="-121.2383" x2="124.9995" y2="-54.6933">
			<stop  offset="0" style="stop-color:#8CC63F"/>
			<stop  offset="1" style="stop-color:#006837"/>
		</linearGradient>
		<path fill="url(#SVGID_1_)" d="M15-76C7.28-76,1-82.28,1-90v-20c0-7.72,6.28-14,14-14h220c7.72,0,14,6.28,14,14v20
			c0,7.72-6.28,14-14,14H15z"/>
		<path d="M235-123c7.168,0,13,5.832,13,13v20c0,7.168-5.832,13-13,13H15C7.832-77,2-82.832,2-90v-20c0-7.168,5.832-13,13-13H235
			 M235-125H15c-8.25,0-15,6.75-15,15v20c0,8.25,6.75,15,15,15h220c8.25,0,15-6.75,15-15v-20C250-118.25,243.25-125,235-125L235-125
			z"/>
	</g>
	<path opacity="0.1" fill="#FFFFFF" d="M81.75-85.5c73.097,0,136.482-11.338,167.839-27.919C248.029-120.033,242.073-125,235-125H15
		c-8.25,0-15,6.75-15,15v19.432C24.735-87.32,52.463-85.5,81.75-85.5z"/>
</g>
<g id="Layer_5">
	<g>
		<linearGradient id="SVGID_2_" gradientUnits="userSpaceOnUse" x1="125.0005" y1="46.2383" x2="125.0005" y2="-20.306">
			<stop  offset="0" style="stop-color:#8CC63F"/>
			<stop  offset="0.1206" style="stop-color:#72B53E"/>
			<stop  offset="0.3745" style="stop-color:#41943B"/>
			<stop  offset="0.5978" style="stop-color:#1E7C39"/>
			<stop  offset="0.7795" style="stop-color:#086D37"/>
			<stop  offset="0.897" style="stop-color:#006837"/>
		</linearGradient>
		<path fill="url(#SVGID_2_)" d="M15,49C7.28,49,1,42.72,1,35V15C1,7.28,7.28,1,15,1h220c7.72,0,14,6.28,14,14v20
			c0,7.72-6.28,14-14,14H15z"/>
		<path d="M235,2c7.168,0,13,5.832,13,13v20c0,7.168-5.832,13-13,13H15C7.832,48,2,42.168,2,35V15C2,7.832,7.832,2,15,2H235 M235,0
			H15C6.75,0,0,6.75,0,15v20c0,8.25,6.75,15,15,15h220c8.25,0,15-6.75,15-15V15C250,6.75,243.25,0,235,0L235,0z"/>
	</g>
	<linearGradient id="SVGID_3_" gradientUnits="userSpaceOnUse" x1="125.0005" y1="29.4424" x2="125.0005" y2="0">
		<stop  offset="0" style="stop-color:#FDFDFE;stop-opacity:0"/>
		<stop  offset="0.0615" style="stop-color:#FDFDFE;stop-opacity:0.0615"/>
		<stop  offset="1" style="stop-color:#FDFDFE"/>
	</linearGradient>
	<path opacity="0.5" fill="url(#SVGID_3_)" d="M235,0H15C6.75,0,0,6.75,0,15v6.311c26.785,4.935,69.633,8.132,117.925,8.132
		c58.027,0,108.192-4.616,132.075-11.317V15C250,6.75,243.25,0,235,0z"/>
	<g>
		<path d="M235,2c7.168,0,13,5.832,13,13v20c0,7.168-5.832,13-13,13H15C7.832,48,2,42.168,2,35V15C2,7.832,7.832,2,15,2H235 M235,0
			H15C6.75,0,0,6.75,0,15v20c0,8.25,6.75,15,15,15h220c8.25,0,15-6.75,15-15V15C250,6.75,243.25,0,235,0L235,0z"/>
	</g>
</g>
<g id="Layer_6">
	<g>
		<linearGradient id="SVGID_4_" gradientUnits="userSpaceOnUse" x1="125.0005" y1="149" x2="125.0005" y2="99.0408">
			<stop  offset="0" style="stop-color:#FF5E5E"/>
			<stop  offset="0.4802" style="stop-color:#D22525"/>
			<stop  offset="0.8287" style="stop-color:#B50000"/>
		</linearGradient>
		<path fill="url(#SVGID_4_)" d="M15,149c-7.72,0-14-6.28-14-14v-20c0-7.72,6.28-14,14-14h220c7.72,0,14,6.28,14,14v20
			c0,7.72-6.28,14-14,14H15z"/>
		<path d="M235,102c7.168,0,13,5.832,13,13v20c0,7.168-5.832,13-13,13H15c-7.168,0-13-5.832-13-13v-20c0-7.168,5.832-13,13-13H235
			 M235,100H15c-8.25,0-15,6.75-15,15v20c0,8.25,6.75,15,15,15h220c8.25,0,15-6.75,15-15v-20C250,106.75,243.25,100,235,100L235,100
			z"/>
	</g>
	<linearGradient id="SVGID_5_" gradientUnits="userSpaceOnUse" x1="124.5005" y1="129.4424" x2="124.5005" y2="100">
		<stop  offset="0" style="stop-color:#FDFDFE;stop-opacity:0"/>
		<stop  offset="0.0615" style="stop-color:#FDFDFE;stop-opacity:0.0615"/>
		<stop  offset="1" style="stop-color:#FDFDFE"/>
	</linearGradient>
	<path opacity="0.5" fill="url(#SVGID_5_)" d="M234.5,100h-220c-8.25,0-15,6.75-15,15v6.311
		c26.785,4.935,69.633,8.132,117.926,8.132c58.026,0,108.191-4.616,132.074-11.317V115C249.5,106.75,242.75,100,234.5,100z"/>
	<g>
		<path d="M234.5,102c7.168,0,13,5.832,13,13v20c0,7.168-5.832,13-13,13h-220c-7.168,0-13-5.832-13-13v-20c0-7.168,5.832-13,13-13
			H234.5 M234.5,100h-220c-8.25,0-15,6.75-15,15v20c0,8.25,6.75,15,15,15h220c8.25,0,15-6.75,15-15v-20
			C249.5,106.75,242.75,100,234.5,100L234.5,100z"/>
	</g>
</g>
<g id="Layer_7">
	<g>
		<linearGradient id="SVGID_6_" gradientUnits="userSpaceOnUse" x1="125.0005" y1="249" x2="125.0005" y2="199.0408">
			<stop  offset="0" style="stop-color:#FFFFFF"/>
			<stop  offset="0.2015" style="stop-color:#D1D1D1"/>
			<stop  offset="0.6336" style="stop-color:#747474"/>
			<stop  offset="0.8287" style="stop-color:#4F4F4F"/>
		</linearGradient>
		<path fill="url(#SVGID_6_)" d="M15,249c-7.72,0-14-6.28-14-14v-20c0-7.72,6.28-14,14-14h220c7.72,0,14,6.28,14,14v20
			c0,7.72-6.28,14-14,14H15z"/>
		<path d="M235,202c7.168,0,13,5.832,13,13v20c0,7.168-5.832,13-13,13H15c-7.168,0-13-5.832-13-13v-20c0-7.168,5.832-13,13-13H235
			 M235,200H15c-8.25,0-15,6.75-15,15v20c0,8.25,6.75,15,15,15h220c8.25,0,15-6.75,15-15v-20C250,206.75,243.25,200,235,200L235,200
			z"/>
	</g>
	<linearGradient id="SVGID_7_" gradientUnits="userSpaceOnUse" x1="124.5005" y1="229.4424" x2="124.5005" y2="200">
		<stop  offset="0" style="stop-color:#FDFDFE;stop-opacity:0"/>
		<stop  offset="0.0615" style="stop-color:#FDFDFE;stop-opacity:0.0615"/>
		<stop  offset="1" style="stop-color:#FDFDFE"/>
	</linearGradient>
	<path opacity="0.5" fill="url(#SVGID_7_)" d="M234.5,200h-220c-8.25,0-15,6.75-15,15v6.311
		c26.785,4.935,69.633,8.132,117.926,8.132c58.026,0,108.191-4.616,132.074-11.317V215C249.5,206.75,242.75,200,234.5,200z"/>
	<g>
		<path d="M234.5,202c7.168,0,13,5.832,13,13v20c0,7.168-5.832,13-13,13h-220c-7.168,0-13-5.832-13-13v-20c0-7.168,5.832-13,13-13
			H234.5 M234.5,200h-220c-8.25,0-15,6.75-15,15v20c0,8.25,6.75,15,15,15h220c8.25,0,15-6.75,15-15v-20
			C249.5,206.75,242.75,200,234.5,200L234.5,200z"/>
	</g>
</g>
<g id="Icon_Guides">
</g>
<g id="Layer_2">
	<text transform="matrix(1 0 0 1 75 -91.5107)" font-family="'MyriadPro-Bold'" font-size="28.9239">EXCELLENT</text>
	<g>
		<path d="M81.452,28.484l-1.389,5.005h-4.542l5.931-19.499h5.786l6.075,19.499H88.54l-1.504-5.005H81.452z M86.398,25.186
			l-1.215-4.137c-0.347-1.157-0.694-2.604-0.983-3.761h-0.058c-0.29,1.157-0.579,2.633-0.897,3.761l-1.157,4.137H86.398z"/>
		<path d="M109.452,32.969c-0.781,0.376-2.633,0.839-4.976,0.839c-6.741,0-10.212-4.224-10.212-9.778
			c0-6.654,4.745-10.328,10.646-10.328c2.285,0,4.021,0.434,4.802,0.867l-0.926,3.472c-0.868-0.376-2.112-0.724-3.703-0.724
			c-3.472,0-6.191,2.112-6.191,6.452c0,3.905,2.314,6.364,6.22,6.364c1.36,0,2.807-0.26,3.703-0.636L109.452,32.969z"/>
		<path d="M128.195,36.846c-2.778-0.811-5.092-1.679-7.725-2.749c-0.434-0.174-0.897-0.261-1.331-0.289
			c-4.427-0.289-8.535-3.529-8.535-9.923c0-5.873,3.703-10.242,9.547-10.242c5.931,0,9.2,4.514,9.2,9.865
			c0,4.427-2.054,7.551-4.6,8.709v0.115c1.476,0.434,3.153,0.811,4.687,1.1L128.195,36.846z M124.694,23.682
			c0-3.588-1.678-6.538-4.687-6.538s-4.745,2.95-4.745,6.625c0,3.703,1.765,6.538,4.745,6.538S124.694,27.501,124.694,23.682z"/>
		<path d="M136.638,13.99v11.195c0,3.386,1.302,5.093,3.529,5.093c2.314,0,3.587-1.62,3.587-5.093V13.99h4.398v10.936
			c0,6.018-3.038,8.882-8.13,8.882c-4.918,0-7.782-2.749-7.782-8.939V13.99H136.638z"/>
		<path d="M156.393,13.99v19.499h-4.397V13.99H156.393z"/>
		<path d="M160.209,14.25c1.418-0.23,3.501-0.404,5.873-0.404c2.894,0,4.918,0.434,6.307,1.533c1.187,0.926,1.823,2.314,1.823,4.107
			c0,2.459-1.765,4.166-3.443,4.773v0.088c1.36,0.549,2.112,1.822,2.604,3.616c0.607,2.228,1.186,4.773,1.562,5.525h-4.513
			c-0.289-0.579-0.781-2.141-1.331-4.542c-0.55-2.459-1.389-3.096-3.211-3.125h-1.302v7.667h-4.369V14.25z M164.578,22.641h1.735
			c2.199,0,3.501-1.1,3.501-2.807c0-1.765-1.215-2.69-3.24-2.69c-1.07,0-1.678,0.058-1.996,0.145V22.641z"/>
		<path d="M188.962,25.244h-7.175v4.629h8.014v3.616H177.39V13.99h12.006v3.616h-7.608v4.05h7.175V25.244z"/>
		<path d="M192.806,14.279c1.62-0.26,3.732-0.434,5.931-0.434c3.732,0,6.162,0.693,8.014,2.082c2.025,1.505,3.299,3.906,3.299,7.35
			c0,3.731-1.36,6.307-3.212,7.897c-2.054,1.707-5.207,2.517-9.026,2.517c-2.285,0-3.935-0.145-5.005-0.289V14.279z M197.203,30.162
			c0.376,0.087,1.013,0.087,1.533,0.087c4.021,0.029,6.654-2.17,6.654-6.827c0-4.051-2.372-6.191-6.191-6.191
			c-0.954,0-1.62,0.086-1.996,0.174V30.162z"/>
	</g>
	<path d="M94.76,123.536c0,6.423-3.848,10.271-9.576,10.271c-5.757,0-9.171-4.368-9.171-9.952c0-5.845,3.761-10.213,9.489-10.213
		C91.49,113.642,94.76,118.126,94.76,123.536z M80.67,123.768c0,3.848,1.793,6.538,4.745,6.538c2.98,0,4.687-2.835,4.687-6.625
		c0-3.529-1.649-6.538-4.687-6.538C82.406,117.143,80.67,119.978,80.67,123.768z"/>
	<path d="M97.677,113.989h11.891v3.616h-7.493v4.455h7.001v3.588h-7.001v7.84h-4.397V113.989z"/>
	<path d="M112.919,113.989h11.89v3.616h-7.493v4.455h7.001v3.588h-7.001v7.84h-4.397V113.989z"/>
	<path d="M128.162,113.989h4.397v15.796h7.753v3.703h-12.15V113.989z"/>
	<path d="M147.339,113.989v19.499h-4.397v-19.499H147.339z"/>
	<path d="M151.155,133.488v-19.499h5.149l4.051,7.146c1.157,2.055,2.285,4.484,3.183,6.683h0.058
		c-0.261-2.574-0.348-5.207-0.348-8.158v-5.67h4.051v19.499h-4.629l-4.166-7.521c-1.157-2.084-2.459-4.601-3.385-6.886h-0.116
		c0.146,2.604,0.203,5.353,0.203,8.534v5.873H151.155z"/>
	<path d="M182.714,125.243h-7.175v4.629h8.014v3.616h-12.411v-19.499h12.006v3.616h-7.608v4.051h7.175V125.243z"/>
	<g>
		<path d="M81.307,213.989v11.196c0,3.385,1.302,5.092,3.53,5.092c2.314,0,3.587-1.62,3.587-5.092v-11.196h4.397v10.936
			c0,6.018-3.038,8.882-8.129,8.882c-4.918,0-7.783-2.749-7.783-8.939v-10.878H81.307z"/>
		<path d="M96.635,233.488v-19.499h5.15l4.05,7.146c1.157,2.055,2.286,4.484,3.183,6.683h0.058c-0.26-2.574-0.347-5.207-0.347-8.158
			v-5.67h4.05v19.499h-4.629l-4.166-7.521c-1.157-2.084-2.459-4.601-3.385-6.886h-0.116c0.145,2.604,0.203,5.353,0.203,8.534v5.873
			H96.635z"/>
		<path d="M116.593,213.989h4.368v8.621h0.058c0.434-0.752,0.897-1.446,1.36-2.141l4.397-6.48h5.438l-6.451,8.303l6.77,11.196
			h-5.121l-4.802-8.419l-1.649,2.055v6.364h-4.368V213.989z"/>
		<path d="M134.352,233.488v-19.499h5.15l4.05,7.146c1.157,2.055,2.285,4.484,3.183,6.683h0.058
			c-0.261-2.574-0.347-5.207-0.347-8.158v-5.67h4.05v19.499h-4.629l-4.166-7.521c-1.157-2.084-2.459-4.601-3.385-6.886h-0.116
			c0.145,2.604,0.203,5.353,0.203,8.534v5.873H134.352z"/>
		<path d="M172.159,223.536c0,6.423-3.848,10.271-9.576,10.271c-5.757,0-9.171-4.368-9.171-9.952c0-5.845,3.761-10.213,9.489-10.213
			C168.89,213.642,172.159,218.126,172.159,223.536z M158.07,223.768c0,3.848,1.793,6.538,4.744,6.538
			c2.979,0,4.687-2.835,4.687-6.625c0-3.529-1.648-6.538-4.687-6.538C159.806,217.143,158.07,219.978,158.07,223.768z"/>
		<path d="M177.998,233.488l-4.629-19.499h4.716l1.476,8.014c0.434,2.343,0.839,4.86,1.157,6.827h0.058
			c0.318-2.111,0.781-4.455,1.273-6.885l1.648-7.956h4.688l1.563,8.216c0.434,2.285,0.752,4.369,1.041,6.538h0.058
			c0.29-2.169,0.724-4.455,1.129-6.798l1.591-7.956h4.484l-5.034,19.499h-4.773l-1.649-8.39c-0.376-1.968-0.694-3.79-0.926-6.018
			h-0.058c-0.347,2.198-0.665,4.05-1.128,6.018l-1.852,8.39H177.998z"/>
		<path d="M200.528,233.488v-19.499h5.149l4.051,7.146c1.157,2.055,2.285,4.484,3.183,6.683h0.058
			c-0.261-2.574-0.348-5.207-0.348-8.158v-5.67h4.051v19.499h-4.629l-4.166-7.521c-1.157-2.084-2.459-4.601-3.385-6.886h-0.116
			c0.146,2.604,0.203,5.353,0.203,8.534v5.873H200.528z"/>
	</g>
	<g id="Layer_3">
		<g>
			<path d="M40.024-100"/>
		</g>
	</g>
	<g>
		<rect x="17.024" y="-97.715" width="3.519" height="17.619"/>
		<rect x="27.644" y="-103.905" width="3.519" height="23.809"/>
		<rect x="38.264" y="-107.714" width="3.52" height="27.619"/>
		<rect x="48.885" y="-111.524" width="3.519" height="31.428"/>
		<rect x="59.505" y="-120.095" width="3.519" height="40"/>
		<path fill="none" d="M40.024-100"/>
	</g>
	<linearGradient id="SVGID_8_" gradientUnits="userSpaceOnUse" x1="-575.5" y1="25.9492" x2="-424.5" y2="25.9492">
		<stop  offset="0.0167" style="stop-color:#1C4518"/>
		<stop  offset="0.0349" style="stop-color:#1B5514"/>
		<stop  offset="0.0745" style="stop-color:#1A710E"/>
		<stop  offset="0.1192" style="stop-color:#188809"/>
		<stop  offset="0.1702" style="stop-color:#179A05"/>
		<stop  offset="0.2315" style="stop-color:#17A702"/>
		<stop  offset="0.3132" style="stop-color:#16AE00"/>
		<stop  offset="0.5" style="stop-color:#16B000"/>
		<stop  offset="0.6315" style="stop-color:#16AD01"/>
		<stop  offset="0.7234" style="stop-color:#17A403"/>
		<stop  offset="0.8032" style="stop-color:#189506"/>
		<stop  offset="0.8761" style="stop-color:#197F0B"/>
		<stop  offset="0.9437" style="stop-color:#1A6311"/>
		<stop  offset="1" style="stop-color:#1C4518"/>
	</linearGradient>
	<path fill="url(#SVGID_8_)" d="M-500,109.75c-52.973,0-73.626-87.283-75.5-95.745v-55.127c20.97-15.486,58.532-16.73,69.903-16.73
		c3.278,0,5.235,0.093,5.254,0.094l0.343,0.017l0.347-0.017c0.016-0.001,1.971-0.094,5.25-0.094c11.371,0,48.933,1.244,69.903,16.73
		v55.124C-426.379,22.451-447.115,109.75-500,109.75L-500,109.75z"/>
	<path fill="#F2F2F2" d="M-505.597-50.853c3.071,0,4.901,0.085,4.905,0.085l0.693,0.033l0.678-0.032
		c0.018-0.001,1.846-0.086,4.918-0.086c10.307,0,43.239,1.034,62.903,13.417v50.675c-1.193,5.246-6.251,25.771-16.585,46.188
		c-6.709,13.256-14.225,23.678-22.337,30.977c-9.233,8.308-18.908,12.346-29.578,12.346c-10.603,0-20.22-3.987-29.403-12.189
		c-8.081-7.218-15.575-17.535-22.274-30.665C-562.11,39.446-567.29,18.518-568.5,13.229v-50.665
		C-548.836-49.819-515.904-50.853-505.597-50.853 M-494.403-64.853c-3.531,0-5.597,0.103-5.597,0.103s-2.069-0.103-5.597-0.103
		c-14.76,0-55.112,1.79-76.903,20.353v59.25c0,0,20.75,102,82.5,102s82.5-102,82.5-102V-44.5
		C-439.289-63.062-479.64-64.853-494.403-64.853L-494.403-64.853z"/>
	<path opacity="0.21" fill="#FFFFFF" d="M-499.653-57.759L-500-57.742l-0.343-0.017c-0.019-0.001-1.977-0.094-5.254-0.094
		c-11.371,0-48.933,1.244-69.903,16.73v55.127c0.584,2.637,2.992,12.93,7.634,25.85c34.52-15.491,85.501-31.835,143.366-29.257
		v-51.72c-20.97-15.486-58.532-16.73-69.903-16.73C-497.682-57.853-499.638-57.76-499.653-57.759z"/>
	<polygon fill="#FFFFFF" points="-479.095,-18.027 -502.857,43.373 -514.739,13.44 -538.5,13.44 -514.739,68.027 -490.976,68.027 
		-455.333,-18.027 	"/>
	<g>
		<linearGradient id="SVGID_9_" gradientUnits="userSpaceOnUse" x1="23.9829" y1="25" x2="56.0132" y2="25">
			<stop  offset="0.0167" style="stop-color:#1C4518"/>
			<stop  offset="0.0349" style="stop-color:#1B5514"/>
			<stop  offset="0.0745" style="stop-color:#1A710E"/>
			<stop  offset="0.1192" style="stop-color:#188809"/>
			<stop  offset="0.1702" style="stop-color:#179A05"/>
			<stop  offset="0.2315" style="stop-color:#17A702"/>
			<stop  offset="0.3132" style="stop-color:#16AE00"/>
			<stop  offset="0.5" style="stop-color:#16B000"/>
			<stop  offset="0.6315" style="stop-color:#16AD01"/>
			<stop  offset="0.7234" style="stop-color:#17A403"/>
			<stop  offset="0.8032" style="stop-color:#189506"/>
			<stop  offset="0.8761" style="stop-color:#197F0B"/>
			<stop  offset="0.9437" style="stop-color:#1A6311"/>
			<stop  offset="1" style="stop-color:#1C4518"/>
		</linearGradient>
		<path fill="url(#SVGID_9_)" d="M39.998,42.776c-11.237,0-15.618-18.516-16.015-20.311V10.772
			c4.448-3.285,12.416-3.549,14.828-3.549c0.695,0,1.111,0.02,1.115,0.02l0.073,0.004l0.074-0.004c0.003,0,0.418-0.02,1.114-0.02
			c2.412,0,10.379,0.264,14.828,3.549v11.693C55.615,24.258,51.216,42.776,39.998,42.776L39.998,42.776z"/>
		<path fill="#F2F2F2" d="M38.811,8.708c0.652,0,1.04,0.019,1.041,0.019l0.147,0.007l0.144-0.007c0.004,0,0.392-0.019,1.043-0.019
			c2.186,0,9.172,0.22,13.343,2.847v10.749c-0.253,1.113-1.326,5.467-3.518,9.797c-1.423,2.813-3.017,5.023-4.738,6.571
			c-1.958,1.763-4.011,2.619-6.274,2.619c-2.249,0-4.289-0.847-6.237-2.586c-1.714-1.53-3.304-3.72-4.725-6.505
			c-2.213-4.338-3.312-8.777-3.568-9.898V11.555C29.639,8.928,36.625,8.708,38.811,8.708 M41.186,5.739
			c-0.749,0-1.188,0.021-1.188,0.021s-0.439-0.021-1.188-0.021c-3.131,0-11.69,0.379-16.313,4.316v12.568
			c0,0,4.401,21.637,17.5,21.637s17.5-21.637,17.5-21.637V10.056C52.876,6.118,44.317,5.739,41.186,5.739L41.186,5.739z"/>
		<path opacity="0.21" fill="#FFFFFF" d="M40.072,7.243l-0.074,0.004l-0.073-0.004c-0.004,0-0.419-0.02-1.115-0.02
			c-2.412,0-10.379,0.264-14.828,3.549v11.693c0.124,0.56,0.635,2.743,1.619,5.483c7.322-3.286,18.137-6.753,30.411-6.206V10.772
			c-4.448-3.285-12.416-3.549-14.828-3.549C40.49,7.224,40.075,7.243,40.072,7.243z"/>
		<polygon fill="#FFFFFF" points="44.433,15.671 39.392,28.696 36.872,22.347 31.832,22.347 36.872,33.925 41.912,33.925 
			49.473,15.671 		"/>
	</g>
	<linearGradient id="SVGID_10_" gradientUnits="userSpaceOnUse" x1="-875.5" y1="25" x2="-724.5" y2="25">
		<stop  offset="0.0042" style="stop-color:#D14747"/>
		<stop  offset="0.0651" style="stop-color:#CE3B3B"/>
		<stop  offset="0.245" style="stop-color:#C61B1B"/>
		<stop  offset="0.3964" style="stop-color:#C10707"/>
		<stop  offset="0.5" style="stop-color:#BF0000"/>
		<stop  offset="0.6045" style="stop-color:#C10606"/>
		<stop  offset="0.7463" style="stop-color:#C51717"/>
		<stop  offset="0.909" style="stop-color:#CC3434"/>
		<stop  offset="1" style="stop-color:#D14747"/>
	</linearGradient>
	<path fill="url(#SVGID_10_)" d="M-800,108.801c-52.973,0-73.626-87.283-75.5-95.744V-42.07c20.97-15.486,58.532-16.73,69.903-16.73
		c3.278,0,5.235,0.092,5.254,0.094l0.343,0.016l0.347-0.016c0.016-0.002,1.971-0.094,5.25-0.094c11.371,0,48.933,1.244,69.903,16.73
		v55.123C-726.379,21.502-747.115,108.801-800,108.801L-800,108.801z"/>
	<path fill="#F2F2F2" d="M-805.597-51.801c3.071,0,4.901,0.084,4.905,0.084l0.693,0.033l0.678-0.031
		c0.018-0.002,1.846-0.086,4.918-0.086c10.307,0,43.239,1.033,62.903,13.416v50.676c-1.193,5.246-6.251,25.77-16.585,46.188
		c-6.709,13.256-14.225,23.678-22.337,30.977c-9.233,8.309-18.908,12.346-29.578,12.346c-10.603,0-20.22-3.986-29.403-12.189
		c-8.081-7.217-15.575-17.535-22.274-30.664C-862.11,38.498-867.29,17.568-868.5,12.281v-50.666
		C-848.836-50.768-815.904-51.801-805.597-51.801 M-794.403-65.801c-3.531,0-5.597,0.102-5.597,0.102s-2.069-0.102-5.597-0.102
		c-14.76,0-55.112,1.789-76.903,20.352v59.25c0,0,20.75,102,82.5,102s82.5-102,82.5-102v-59.25
		C-739.289-64.01-779.64-65.801-794.403-65.801L-794.403-65.801z"/>
	<path opacity="0.21" fill="#FFFFFF" d="M-799.653-58.707L-800-58.691l-0.343-0.016c-0.019-0.002-1.977-0.094-5.254-0.094
		c-11.371,0-48.933,1.244-69.903,16.73v55.127c0.584,2.637,2.992,12.93,7.634,25.85C-833.347,23.414-782.365,7.07-724.5,9.648
		V-42.07c-20.97-15.486-58.532-16.73-69.903-16.73C-797.682-58.801-799.638-58.709-799.653-58.707z"/>
	<g>
		<path fill="#FFFFFF" d="M-785.549,58.979l-7.699-12.302c-3.155-4.738-5.174-8.269-7.572-12.2h-0.252
			c-1.767,3.932-3.913,7.462-6.689,12.2l-6.942,12.302h-21.96l24.611-34.384l-23.728-33.575h22.087l7.447,12.402
			c2.524,4.133,4.417,7.461,6.437,11.292h0.252c2.02-4.334,3.66-7.359,5.806-11.292l7.194-12.402h21.961l-23.98,33.173
			l25.242,34.786H-785.549z"/>
	</g>
	<g>
		<linearGradient id="SVGID_11_" gradientUnits="userSpaceOnUse" x1="23.9448" y1="125" x2="55.9751" y2="125">
			<stop  offset="0.0042" style="stop-color:#D14747"/>
			<stop  offset="0.0651" style="stop-color:#CE3B3B"/>
			<stop  offset="0.245" style="stop-color:#C61B1B"/>
			<stop  offset="0.3964" style="stop-color:#C10707"/>
			<stop  offset="0.5" style="stop-color:#BF0000"/>
			<stop  offset="0.6045" style="stop-color:#C10606"/>
			<stop  offset="0.7463" style="stop-color:#C51717"/>
			<stop  offset="0.909" style="stop-color:#CC3434"/>
			<stop  offset="1" style="stop-color:#D14747"/>
		</linearGradient>
		<path fill="url(#SVGID_11_)" d="M39.96,142.775c-11.237,0-15.618-18.514-16.015-20.309v-11.693
			c4.448-3.285,12.416-3.549,14.828-3.549c0.695,0,1.111,0.02,1.115,0.02l0.073,0.003l0.074-0.003c0.003,0,0.418-0.02,1.114-0.02
			c2.412,0,10.379,0.264,14.828,3.549v11.692C55.577,124.258,51.178,142.775,39.96,142.775L39.96,142.775z"/>
		<path fill="#F2F2F2" d="M38.772,108.709c0.652,0,1.04,0.018,1.041,0.018l0.147,0.008l0.144-0.008c0.004,0,0.392-0.018,1.043-0.018
			c2.186,0,9.172,0.219,13.343,2.846v10.75c-0.253,1.112-1.326,5.466-3.518,9.797c-1.423,2.813-3.017,5.022-4.738,6.57
			c-1.958,1.763-4.011,2.619-6.274,2.619c-2.249,0-4.289-0.846-6.237-2.586c-1.714-1.53-3.304-3.719-4.725-6.504
			c-2.213-4.338-3.312-8.777-3.568-9.898v-10.748C29.601,108.928,36.586,108.709,38.772,108.709 M41.147,105.739
			c-0.749,0-1.188,0.021-1.188,0.021s-0.439-0.021-1.188-0.021c-3.131,0-11.69,0.38-16.313,4.317v12.568
			c0,0,4.401,21.636,17.5,21.636s17.5-21.636,17.5-21.636v-12.568C52.838,106.119,44.279,105.739,41.147,105.739L41.147,105.739z"/>
		<path opacity="0.21" fill="#FFFFFF" d="M40.034,107.244l-0.074,0.003l-0.073-0.003c-0.004,0-0.419-0.02-1.115-0.02
			c-2.412,0-10.379,0.264-14.828,3.549v11.693c0.124,0.559,0.635,2.742,1.619,5.482c7.322-3.285,18.137-6.752,30.411-6.205v-10.971
			c-4.448-3.285-12.416-3.549-14.828-3.549C40.452,107.225,40.037,107.244,40.034,107.244z"/>
		<g>
			<path fill="#FFFFFF" d="M43.025,132.208l-1.633-2.61c-0.669-1.004-1.098-1.754-1.606-2.588h-0.054
				c-0.375,0.834-0.83,1.584-1.419,2.588l-1.473,2.61h-4.658l5.221-7.294l-5.033-7.122h4.685l1.58,2.631
				c0.535,0.877,0.937,1.583,1.365,2.396h0.054c0.428-0.92,0.776-1.561,1.231-2.396l1.526-2.631h4.659l-5.087,7.037l5.354,7.379
				H43.025z"/>
		</g>
	</g>
	<linearGradient id="SVGID_12_" gradientUnits="userSpaceOnUse" x1="-1175.5" y1="25" x2="-1024.5" y2="25">
		<stop  offset="0.0042" style="stop-color:#C9C9C9"/>
		<stop  offset="0.5" style="stop-color:#595959"/>
		<stop  offset="0.578" style="stop-color:#5F5F5F"/>
		<stop  offset="0.6841" style="stop-color:#717171"/>
		<stop  offset="0.8062" style="stop-color:#8D8D8D"/>
		<stop  offset="0.9393" style="stop-color:#B4B4B4"/>
		<stop  offset="1" style="stop-color:#C9C9C9"/>
	</linearGradient>
	<path fill="url(#SVGID_12_)" d="M-1100,108.801c-52.973,0-73.626-87.283-75.5-95.744V-42.07
		c20.97-15.486,58.532-16.73,69.903-16.73c3.278,0,5.235,0.092,5.254,0.094l0.343,0.016l0.347-0.016
		c0.016-0.002,1.971-0.094,5.25-0.094c11.371,0,48.933,1.244,69.903,16.73v55.123C-1026.379,21.502-1047.115,108.801-1100,108.801
		L-1100,108.801z"/>
	<path d="M-1105.597-51.801c3.071,0,4.901,0.084,4.905,0.084l0.693,0.033l0.678-0.031c0.018-0.002,1.846-0.086,4.918-0.086
		c10.307,0,43.239,1.033,62.903,13.416v50.676c-1.193,5.246-6.251,25.77-16.585,46.188c-6.709,13.256-14.225,23.678-22.337,30.977
		c-9.233,8.309-18.908,12.346-29.578,12.346c-10.603,0-20.22-3.986-29.403-12.189c-8.081-7.217-15.575-17.535-22.274-30.664
		c-10.433-20.449-15.613-41.379-16.823-46.666v-50.666C-1148.836-50.768-1115.904-51.801-1105.597-51.801 M-1094.403-65.801
		c-3.531,0-5.597,0.102-5.597,0.102s-2.069-0.102-5.597-0.102c-14.76,0-55.112,1.789-76.903,20.352v59.25c0,0,20.75,102,82.5,102
		s82.5-102,82.5-102v-59.25C-1039.289-64.01-1079.64-65.801-1094.403-65.801L-1094.403-65.801z"/>
	<path opacity="0.21" fill="#FFFFFF" d="M-1099.653-58.707l-0.347,0.016l-0.343-0.016c-0.019-0.002-1.977-0.094-5.254-0.094
		c-11.371,0-48.933,1.244-69.903,16.73v55.127c0.584,2.637,2.992,12.93,7.634,25.85c34.52-15.492,85.501-31.836,143.366-29.258
		V-42.07c-20.97-15.486-58.532-16.73-69.903-16.73C-1097.682-58.801-1099.638-58.709-1099.653-58.707z"/>
	<g>
		<path fill="#FFFFFF" d="M-1185.812-158.818l-0.158-4.101c-0.474-8.038,2.208-16.235,9.302-24.591
			c5.046-6.149,9.143-11.352,9.143-16.554c0-5.518-3.625-9.303-11.507-9.459c-5.202,0-11.51,1.891-15.607,4.729l-5.361-17.183
			c5.833-3.312,15.133-6.463,26.327-6.463c20.809,0,30.425,11.507,30.425,24.591c0,11.983-7.567,19.864-13.556,26.485
			c-5.677,6.465-8.199,12.612-8.04,19.707v2.838H-1185.812z M-1189.91-136.905c0-8.514,5.832-14.347,14.029-14.347
			c8.514,0,14.031,5.833,14.188,14.347c0,8.198-5.518,14.345-14.188,14.345C-1184.234-122.561-1189.91-128.707-1189.91-136.905z"/>
	</g>
	<g>
		<linearGradient id="SVGID_13_" gradientUnits="userSpaceOnUse" x1="25.0547" y1="225" x2="57.085" y2="225">
			<stop  offset="0.0042" style="stop-color:#C9C9C9"/>
			<stop  offset="0.5" style="stop-color:#595959"/>
			<stop  offset="0.578" style="stop-color:#5F5F5F"/>
			<stop  offset="0.6841" style="stop-color:#717171"/>
			<stop  offset="0.8062" style="stop-color:#8D8D8D"/>
			<stop  offset="0.9393" style="stop-color:#B4B4B4"/>
			<stop  offset="1" style="stop-color:#C9C9C9"/>
		</linearGradient>
		<path fill="url(#SVGID_13_)" d="M41.07,242.776c-11.237,0-15.618-18.515-16.015-20.31v-11.693
			c4.448-3.285,12.416-3.55,14.828-3.55c0.695,0,1.111,0.02,1.115,0.021l0.073,0.003l0.074-0.003
			c0.003-0.001,0.418-0.021,1.114-0.021c2.412,0,10.379,0.265,14.828,3.55v11.692C56.687,224.258,52.288,242.776,41.07,242.776
			L41.07,242.776z"/>
		<path d="M39.882,208.709c0.652,0,1.04,0.018,1.041,0.018l0.147,0.007l0.144-0.006c0.004-0.001,0.392-0.019,1.043-0.019
			c2.186,0,9.172,0.219,13.343,2.846v10.749c-0.253,1.113-1.326,5.467-3.518,9.798c-1.423,2.812-3.017,5.022-4.738,6.57
			c-1.958,1.763-4.011,2.619-6.274,2.619c-2.249,0-4.289-0.846-6.237-2.586c-1.714-1.53-3.304-3.719-4.725-6.504
			c-2.213-4.338-3.312-8.777-3.568-9.899v-10.747C30.71,208.928,37.696,208.709,39.882,208.709 M42.257,205.739
			c-0.749,0-1.188,0.021-1.188,0.021s-0.439-0.021-1.188-0.021c-3.131,0-11.69,0.38-16.313,4.317v12.567
			c0,0,4.401,21.637,17.5,21.637s17.5-21.637,17.5-21.637v-12.567C53.948,206.119,45.389,205.739,42.257,205.739L42.257,205.739z"/>
		<path opacity="0.21" fill="#FFFFFF" d="M41.144,207.244l-0.074,0.003l-0.073-0.003c-0.004-0.001-0.419-0.021-1.115-0.021
			c-2.412,0-10.379,0.265-14.828,3.55v11.693c0.124,0.559,0.635,2.742,1.619,5.483c7.322-3.286,18.137-6.754,30.411-6.207v-10.97
			c-4.448-3.285-12.416-3.55-14.828-3.55C41.562,207.224,41.146,207.243,41.144,207.244z"/>
		<g>
			<path fill="#FFFFFF" d="M38.06,228.963l-0.033-0.87c-0.101-1.705,0.468-3.443,1.973-5.216c1.07-1.305,1.939-2.408,1.939-3.512
				c0-1.17-0.769-1.974-2.441-2.007c-1.104,0-2.442,0.401-3.311,1.004l-1.137-3.646c1.237-0.702,3.21-1.371,5.584-1.371
				c4.414,0,6.454,2.441,6.454,5.217c0,2.542-1.605,4.214-2.875,5.618c-1.204,1.371-1.739,2.675-1.706,4.18v0.603H38.06z
				 M37.191,233.611c0-1.807,1.237-3.044,2.976-3.044c1.806,0,2.976,1.237,3.009,3.044c0,1.738-1.17,3.043-3.009,3.043
				C38.395,236.654,37.191,235.35,37.191,233.611z"/>
		</g>
	</g>
	<g>
		<path fill="#FFFFFF" d="M-1085.549,58.979l-7.699-12.302c-3.155-4.738-5.174-8.269-7.572-12.2h-0.252
			c-1.767,3.932-3.913,7.462-6.689,12.2l-6.942,12.302h-21.96l24.611-34.384l-23.728-33.575h22.087l7.447,12.402
			c2.524,4.133,4.417,7.461,6.437,11.292h0.252c2.02-4.334,3.66-7.359,5.806-11.292l7.194-12.402h21.961l-23.98,33.173
			l25.242,34.786H-1085.549z"/>
	</g>
	<g>
		<linearGradient id="SVGID_14_" gradientUnits="userSpaceOnUse" x1="550.25" y1="49" x2="550.25" y2="-0.9592">
			<stop  offset="0" style="stop-color:#FFFFFF"/>
			<stop  offset="0.2015" style="stop-color:#D1D1D1"/>
			<stop  offset="0.6336" style="stop-color:#747474"/>
			<stop  offset="0.8287" style="stop-color:#4F4F4F"/>
		</linearGradient>
		<path fill="url(#SVGID_14_)" d="M440.25,49c-7.72,0-14-6.28-14-14V15c0-7.72,6.28-14,14-14h220c7.72,0,14,6.28,14,14v20
			c0,7.72-6.28,14-14,14H440.25z"/>
		<path d="M660.25,2c7.168,0,13,5.832,13,13v20c0,7.168-5.832,13-13,13h-220c-7.168,0-13-5.832-13-13V15c0-7.168,5.832-13,13-13
			H660.25 M660.25,0h-220c-8.25,0-15,6.75-15,15v20c0,8.25,6.75,15,15,15h220c8.25,0,15-6.75,15-15V15C675.25,6.75,668.5,0,660.25,0
			L660.25,0z"/>
	</g>
	<linearGradient id="SVGID_15_" gradientUnits="userSpaceOnUse" x1="549.75" y1="29.4424" x2="549.75" y2="0">
		<stop  offset="0" style="stop-color:#FDFDFE;stop-opacity:0"/>
		<stop  offset="0.0615" style="stop-color:#FDFDFE;stop-opacity:0.0615"/>
		<stop  offset="1" style="stop-color:#FDFDFE"/>
	</linearGradient>
	<path opacity="0.5" fill="url(#SVGID_15_)" d="M659.75,0h-220c-8.25,0-15,6.75-15,15v6.311
		c26.785,4.935,69.633,8.132,117.926,8.132c58.026,0,108.191-4.616,132.074-11.317V15C674.75,6.75,668,0,659.75,0z"/>
	<g>
		<linearGradient id="SVGID_16_" gradientUnits="userSpaceOnUse" x1="448.9844" y1="25" x2="481.0156" y2="25">
			<stop  offset="0.0042" style="stop-color:#C9C9C9"/>
			<stop  offset="0.5" style="stop-color:#595959"/>
			<stop  offset="0.578" style="stop-color:#5F5F5F"/>
			<stop  offset="0.6841" style="stop-color:#717171"/>
			<stop  offset="0.8062" style="stop-color:#8D8D8D"/>
			<stop  offset="0.9393" style="stop-color:#B4B4B4"/>
			<stop  offset="1" style="stop-color:#C9C9C9"/>
		</linearGradient>
		<path fill="url(#SVGID_16_)" d="M465,42.776c-11.236,0-15.617-18.515-16.016-20.31V10.773c4.449-3.285,12.416-3.55,14.828-3.55
			c0.695,0,1.111,0.02,1.115,0.021L465,7.247l0.074-0.003c0.002-0.001,0.418-0.021,1.113-0.021c2.412,0,10.379,0.265,14.828,3.55
			v11.692C480.617,24.258,476.219,42.776,465,42.776L465,42.776z"/>
		<path d="M463.813,8.709c0.652,0,1.04,0.018,1.041,0.018L465,8.733l0.145-0.006c0.004-0.001,0.391-0.019,1.043-0.019
			c2.186,0,9.172,0.219,13.343,2.846v10.749c-0.253,1.113-1.326,5.467-3.519,9.798c-1.422,2.812-3.017,5.022-4.738,6.57
			c-1.958,1.763-4.01,2.619-6.273,2.619c-2.249,0-4.289-0.846-6.237-2.586c-1.714-1.53-3.304-3.719-4.725-6.504
			c-2.213-4.338-3.312-8.777-3.568-9.899V11.555C454.641,8.928,461.627,8.709,463.813,8.709 M466.188,5.739
			c-0.749,0-1.188,0.021-1.188,0.021s-0.439-0.021-1.188-0.021c-3.131,0-11.69,0.38-16.313,4.317v12.567
			c0,0,4.401,21.637,17.5,21.637s17.5-21.637,17.5-21.637V10.057C477.878,6.119,469.318,5.739,466.188,5.739L466.188,5.739z"/>
		<path opacity="0.21" fill="#FFFFFF" d="M465.074,7.244L465,7.247l-0.072-0.003c-0.004-0.001-0.42-0.021-1.115-0.021
			c-2.412,0-10.379,0.265-14.828,3.55v11.693c0.125,0.559,0.635,2.742,1.619,5.483c7.322-3.286,18.137-6.754,30.412-6.207v-10.97
			c-4.449-3.285-12.416-3.55-14.828-3.55C465.492,7.224,465.076,7.243,465.074,7.244z"/>
		<g>
			<path fill="#FFFFFF" d="M468.065,32.208l-1.634-2.609c-0.668-1.006-1.098-1.754-1.605-2.588h-0.054
				c-0.375,0.834-0.83,1.582-1.419,2.588l-1.473,2.609h-4.658l5.221-7.294l-5.033-7.122h4.686l1.579,2.631
				c0.535,0.877,0.937,1.583,1.365,2.396h0.054c0.428-0.919,0.776-1.562,1.231-2.396l1.526-2.631h4.658l-5.087,7.037l5.354,7.379
				H468.065z"/>
		</g>
	</g>
	<g>
		<path d="M506.336,13.99v19.499h-4.397V13.99H506.336z"/>
		<path d="M510.152,33.489V13.99h5.15l4.05,7.146c1.157,2.054,2.286,4.484,3.183,6.683h0.058c-0.261-2.574-0.347-5.207-0.347-8.158
			v-5.67h4.05v19.499h-4.629l-4.166-7.522c-1.157-2.082-2.459-4.6-3.385-6.885H514c0.145,2.604,0.203,5.352,0.203,8.534v5.873
			H510.152z"/>
		<path d="M534.652,28.484l-1.389,5.005h-4.543l5.932-19.499h5.785l6.076,19.499h-4.773l-1.505-5.005H534.652z M539.599,25.186
			l-1.215-4.137c-0.347-1.157-0.694-2.604-0.983-3.761h-0.059c-0.289,1.157-0.578,2.633-0.896,3.761l-1.157,4.137H539.599z"/>
		<path d="M562.652,32.969c-0.781,0.376-2.633,0.839-4.977,0.839c-6.74,0-10.213-4.224-10.213-9.778
			c0-6.654,4.745-10.328,10.646-10.328c2.286,0,4.021,0.434,4.803,0.867l-0.926,3.472c-0.868-0.376-2.111-0.724-3.703-0.724
			c-3.472,0-6.191,2.112-6.191,6.452c0,3.905,2.314,6.364,6.221,6.364c1.359,0,2.806-0.26,3.703-0.636L562.652,32.969z"/>
		<path d="M569.764,17.693h-5.266V13.99h14.986v3.703h-5.323v15.796h-4.397V17.693z"/>
		<path d="M586.251,13.99v19.499h-4.397V13.99H586.251z"/>
		<path d="M594.668,33.489l-6.249-19.499h4.831l2.372,8.245c0.666,2.343,1.273,4.542,1.736,6.972h0.087
			c0.491-2.343,1.099-4.657,1.765-6.885l2.487-8.332h4.688l-6.567,19.499H594.668z"/>
		<path d="M620.063,25.244h-7.175v4.629h8.014v3.616h-12.411V13.99h12.006v3.616h-7.608v4.05h7.175V25.244z"/>
	</g>
	<g>
		<path d="M660.25,2c7.168,0,13,5.832,13,13v20c0,7.168-5.832,13-13,13h-220c-7.168,0-13-5.832-13-13V15c0-7.168,5.832-13,13-13
			H660.25 M660.25,0h-220c-8.25,0-15,6.75-15,15v20c0,8.25,6.75,15,15,15h220c8.25,0,15-6.75,15-15V15C675.25,6.75,668.5,0,660.25,0
			L660.25,0z"/>
	</g>
</g>
</svg>
