<?xml version="1.0" encoding="utf-8"?>
<!-- Generator: Adobe Illustrator 14.0.0, SVG Export Plug-In . SVG Version: 6.00 Build 43363)  -->
<!DOCTYPE svg PUBLIC "-//W3C//DTD SVG 1.1//EN" "http://www.w3.org/Graphics/SVG/1.1/DTD/svg11.dtd">
<svg version="1.1" xmlns="http://www.w3.org/2000/svg" xmlns:xlink="http://www.w3.org/1999/xlink" x="0px" y="0px" width="250px"
	 height="50px" viewBox="0 0 250 50" enable-background="new 0 0 250 50" xml:space="preserve">
<g id="Indicator_base">
	<g>
		<linearGradient id="SVGID_1_" gradientUnits="userSpaceOnUse" x1="-300.0005" y1="-121.2383" x2="-300.0005" y2="-54.6933">
			<stop  offset="0" style="stop-color:#8CC63F"/>
			<stop  offset="1" style="stop-color:#006837"/>
		</linearGradient>
		<path fill="url(#SVGID_1_)" d="M-410-76c-7.72,0-14-6.28-14-14v-20c0-7.72,6.28-14,14-14h220c7.72,0,14,6.28,14,14v20
			c0,7.72-6.28,14-14,14H-410z"/>
		<path d="M-190-123c7.168,0,13,5.832,13,13v20c0,7.168-5.832,13-13,13h-220c-7.168,0-13-5.832-13-13v-20c0-7.168,5.832-13,13-13
			H-190 M-190-125h-220c-8.25,0-15,6.75-15,15v20c0,8.25,6.75,15,15,15h220c8.25,0,15-6.75,15-15v-20
			C-175-118.25-181.75-125-190-125L-190-125z"/>
	</g>
	<path opacity="0.1" fill="#FFFFFF" d="M-343.25-85.5c73.097,0,136.482-11.338,167.839-27.919C-176.971-120.033-182.927-125-190-125
		h-220c-8.25,0-15,6.75-15,15v19.432C-400.265-87.32-372.537-85.5-343.25-85.5z"/>
</g>
<g id="Layer_5">
	<g>
		<linearGradient id="SVGID_2_" gradientUnits="userSpaceOnUse" x1="-299.9995" y1="46.2383" x2="-299.9995" y2="-20.306">
			<stop  offset="0" style="stop-color:#8CC63F"/>
			<stop  offset="0.1206" style="stop-color:#72B53E"/>
			<stop  offset="0.3745" style="stop-color:#41943B"/>
			<stop  offset="0.5978" style="stop-color:#1E7C39"/>
			<stop  offset="0.7795" style="stop-color:#086D37"/>
			<stop  offset="0.897" style="stop-color:#006837"/>
		</linearGradient>
		<path fill="url(#SVGID_2_)" d="M-410,49c-7.72,0-14-6.28-14-14V15c0-7.72,6.28-14,14-14h220c7.72,0,14,6.28,14,14v20
			c0,7.72-6.28,14-14,14H-410z"/>
		<path d="M-190,2c7.168,0,13,5.832,13,13v20c0,7.168-5.832,13-13,13h-220c-7.168,0-13-5.832-13-13V15c0-7.168,5.832-13,13-13H-190
			 M-190,0h-220c-8.25,0-15,6.75-15,15v20c0,8.25,6.75,15,15,15h220c8.25,0,15-6.75,15-15V15C-175,6.75-181.75,0-190,0L-190,0z"/>
	</g>
	<linearGradient id="SVGID_3_" gradientUnits="userSpaceOnUse" x1="-299.9995" y1="29.4424" x2="-299.9995" y2="0">
		<stop  offset="0" style="stop-color:#FDFDFE;stop-opacity:0"/>
		<stop  offset="0.0615" style="stop-color:#FDFDFE;stop-opacity:0.0615"/>
		<stop  offset="1" style="stop-color:#FDFDFE"/>
	</linearGradient>
	<path opacity="0.5" fill="url(#SVGID_3_)" d="M-190,0h-220c-8.25,0-15,6.75-15,15v6.311c26.785,4.935,69.633,8.132,117.925,8.132
		c58.027,0,108.192-4.616,132.075-11.317V15C-175,6.75-181.75,0-190,0z"/>
	<g>
		<path d="M-190,2c7.168,0,13,5.832,13,13v20c0,7.168-5.832,13-13,13h-220c-7.168,0-13-5.832-13-13V15c0-7.168,5.832-13,13-13H-190
			 M-190,0h-220c-8.25,0-15,6.75-15,15v20c0,8.25,6.75,15,15,15h220c8.25,0,15-6.75,15-15V15C-175,6.75-181.75,0-190,0L-190,0z"/>
	</g>
</g>
<g id="Layer_6">
	<g>
		<linearGradient id="SVGID_4_" gradientUnits="userSpaceOnUse" x1="-299.9995" y1="149" x2="-299.9995" y2="99.0408">
			<stop  offset="0" style="stop-color:#FF5E5E"/>
			<stop  offset="0.4802" style="stop-color:#D22525"/>
			<stop  offset="0.8287" style="stop-color:#B50000"/>
		</linearGradient>
		<path fill="url(#SVGID_4_)" d="M-410,149c-7.72,0-14-6.28-14-14v-20c0-7.72,6.28-14,14-14h220c7.72,0,14,6.28,14,14v20
			c0,7.72-6.28,14-14,14H-410z"/>
		<path d="M-190,102c7.168,0,13,5.832,13,13v20c0,7.168-5.832,13-13,13h-220c-7.168,0-13-5.832-13-13v-20c0-7.168,5.832-13,13-13
			H-190 M-190,100h-220c-8.25,0-15,6.75-15,15v20c0,8.25,6.75,15,15,15h220c8.25,0,15-6.75,15-15v-20
			C-175,106.75-181.75,100-190,100L-190,100z"/>
	</g>
	<linearGradient id="SVGID_5_" gradientUnits="userSpaceOnUse" x1="-300.4995" y1="129.4424" x2="-300.4995" y2="100">
		<stop  offset="0" style="stop-color:#FDFDFE;stop-opacity:0"/>
		<stop  offset="0.0615" style="stop-color:#FDFDFE;stop-opacity:0.0615"/>
		<stop  offset="1" style="stop-color:#FDFDFE"/>
	</linearGradient>
	<path opacity="0.5" fill="url(#SVGID_5_)" d="M-190.5,100h-220c-8.25,0-15,6.75-15,15v6.311
		c26.785,4.935,69.633,8.132,117.926,8.132c58.026,0,108.191-4.616,132.074-11.317V115C-175.5,106.75-182.25,100-190.5,100z"/>
	<g>
		<path d="M-190.5,102c7.168,0,13,5.832,13,13v20c0,7.168-5.832,13-13,13h-220c-7.168,0-13-5.832-13-13v-20c0-7.168,5.832-13,13-13
			H-190.5 M-190.5,100h-220c-8.25,0-15,6.75-15,15v20c0,8.25,6.75,15,15,15h220c8.25,0,15-6.75,15-15v-20
			C-175.5,106.75-182.25,100-190.5,100L-190.5,100z"/>
	</g>
</g>
<g id="Layer_7">
	<g>
		<linearGradient id="SVGID_6_" gradientUnits="userSpaceOnUse" x1="-299.9995" y1="249" x2="-299.9995" y2="199.0408">
			<stop  offset="0" style="stop-color:#FFFFFF"/>
			<stop  offset="0.2015" style="stop-color:#D1D1D1"/>
			<stop  offset="0.6336" style="stop-color:#747474"/>
			<stop  offset="0.8287" style="stop-color:#4F4F4F"/>
		</linearGradient>
		<path fill="url(#SVGID_6_)" d="M-410,249c-7.72,0-14-6.28-14-14v-20c0-7.72,6.28-14,14-14h220c7.72,0,14,6.28,14,14v20
			c0,7.72-6.28,14-14,14H-410z"/>
		<path d="M-190,202c7.168,0,13,5.832,13,13v20c0,7.168-5.832,13-13,13h-220c-7.168,0-13-5.832-13-13v-20c0-7.168,5.832-13,13-13
			H-190 M-190,200h-220c-8.25,0-15,6.75-15,15v20c0,8.25,6.75,15,15,15h220c8.25,0,15-6.75,15-15v-20
			C-175,206.75-181.75,200-190,200L-190,200z"/>
	</g>
	<linearGradient id="SVGID_7_" gradientUnits="userSpaceOnUse" x1="-300.4995" y1="229.4424" x2="-300.4995" y2="200">
		<stop  offset="0" style="stop-color:#FDFDFE;stop-opacity:0"/>
		<stop  offset="0.0615" style="stop-color:#FDFDFE;stop-opacity:0.0615"/>
		<stop  offset="1" style="stop-color:#FDFDFE"/>
	</linearGradient>
	<path opacity="0.5" fill="url(#SVGID_7_)" d="M-190.5,200h-220c-8.25,0-15,6.75-15,15v6.311
		c26.785,4.935,69.633,8.132,117.926,8.132c58.026,0,108.191-4.616,132.074-11.317V215C-175.5,206.75-182.25,200-190.5,200z"/>
	<g>
		<path d="M-190.5,202c7.168,0,13,5.832,13,13v20c0,7.168-5.832,13-13,13h-220c-7.168,0-13-5.832-13-13v-20c0-7.168,5.832-13,13-13
			H-190.5 M-190.5,200h-220c-8.25,0-15,6.75-15,15v20c0,8.25,6.75,15,15,15h220c8.25,0,15-6.75,15-15v-20
			C-175.5,206.75-182.25,200-190.5,200L-190.5,200z"/>
	</g>
</g>
<g id="Icon_Guides">
</g>
<g id="Layer_2">
	<text transform="matrix(1 0 0 1 -350 -91.5107)" font-family="'MyriadPro-Bold'" font-size="28.9239">EXCELLENT</text>
	<g>
		<path d="M-331.803,32.592c-1.359,0.463-3.935,1.099-6.509,1.099c-3.559,0-6.133-0.896-7.927-2.604
			c-1.765-1.707-2.748-4.253-2.748-7.116c0.029-6.48,4.745-10.184,11.138-10.184c2.517,0,4.456,0.491,5.41,0.926l-0.926,3.558
			c-1.071-0.491-2.373-0.839-4.513-0.839c-3.674,0-6.48,2.055-6.48,6.307c0,4.051,2.546,6.394,6.162,6.394
			c0.983,0,1.794-0.115,2.141-0.26v-4.108h-3.009v-3.442h7.262V32.592z"/>
		<path d="M-310.515,23.536c0,6.423-3.848,10.271-9.576,10.271c-5.757,0-9.171-4.368-9.171-9.952c0-5.845,3.761-10.213,9.489-10.213
			C-313.784,13.642-310.515,18.126-310.515,23.536z M-324.604,23.768c0,3.848,1.793,6.538,4.745,6.538
			c2.98,0,4.687-2.835,4.687-6.625c0-3.529-1.649-6.538-4.687-6.538C-322.868,17.143-324.604,19.978-324.604,23.768z"/>
		<path d="M-289.776,23.536c0,6.423-3.848,10.271-9.576,10.271c-5.757,0-9.171-4.368-9.171-9.952c0-5.845,3.761-10.213,9.489-10.213
			C-293.046,13.642-289.776,18.126-289.776,23.536z M-303.866,23.768c0,3.848,1.793,6.538,4.745,6.538
			c2.98,0,4.687-2.835,4.687-6.625c0-3.529-1.649-6.538-4.687-6.538C-302.13,17.143-303.866,19.978-303.866,23.768z"/>
		<path d="M-286.889,14.278c1.62-0.261,3.732-0.435,5.931-0.435c3.732,0,6.163,0.695,8.015,2.084
			c2.024,1.504,3.298,3.905,3.298,7.348c0,3.732-1.36,6.308-3.212,7.898c-2.054,1.707-5.207,2.517-9.026,2.517
			c-2.285,0-3.935-0.145-5.005-0.289V14.278z M-282.491,30.161c0.376,0.087,1.013,0.087,1.533,0.087
			c4.021,0.029,6.654-2.17,6.654-6.828c0-4.05-2.372-6.19-6.191-6.19c-0.954,0-1.62,0.087-1.996,0.173V30.161z"/>
	</g>
	<path d="M-330.24,123.536c0,6.423-3.848,10.271-9.576,10.271c-5.757,0-9.171-4.368-9.171-9.952c0-5.845,3.761-10.213,9.489-10.213
		C-333.51,113.642-330.24,118.126-330.24,123.536z M-344.33,123.768c0,3.848,1.793,6.538,4.745,6.538
		c2.98,0,4.687-2.835,4.687-6.625c0-3.529-1.649-6.538-4.687-6.538C-342.594,117.143-344.33,119.978-344.33,123.768z"/>
	<path d="M-327.323,113.989h11.891v3.616h-7.493v4.455h7.001v3.588h-7.001v7.84h-4.397V113.989z"/>
	<path d="M-312.081,113.989h11.89v3.616h-7.493v4.455h7.001v3.588h-7.001v7.84h-4.397V113.989z"/>
	<path d="M-296.838,113.989h4.397v15.796h7.753v3.703h-12.15V113.989z"/>
	<path d="M-277.661,113.989v19.499h-4.397v-19.499H-277.661z"/>
	<path d="M-273.845,133.488v-19.499h5.149l4.051,7.146c1.157,2.055,2.285,4.484,3.183,6.683h0.058
		c-0.261-2.574-0.348-5.207-0.348-8.158v-5.67h4.051v19.499h-4.629l-4.166-7.521c-1.157-2.084-2.459-4.601-3.385-6.886h-0.116
		c0.146,2.604,0.203,5.353,0.203,8.534v5.873H-273.845z"/>
	<path d="M-242.286,125.243h-7.175v4.629h8.014v3.616h-12.411v-19.499h12.006v3.616h-7.608v4.051h7.175V125.243z"/>
	<g>
		<path d="M-343.693,213.989v11.196c0,3.385,1.302,5.092,3.53,5.092c2.314,0,3.587-1.62,3.587-5.092v-11.196h4.397v10.936
			c0,6.018-3.038,8.882-8.129,8.882c-4.918,0-7.783-2.749-7.783-8.939v-10.878H-343.693z"/>
		<path d="M-328.365,233.488v-19.499h5.15l4.05,7.146c1.157,2.055,2.286,4.484,3.183,6.683h0.058
			c-0.26-2.574-0.347-5.207-0.347-8.158v-5.67h4.05v19.499h-4.629l-4.166-7.521c-1.157-2.084-2.459-4.601-3.385-6.886h-0.116
			c0.145,2.604,0.203,5.353,0.203,8.534v5.873H-328.365z"/>
		<path d="M-308.407,213.989h4.368v8.621h0.058c0.434-0.752,0.897-1.446,1.36-2.141l4.397-6.48h5.438l-6.451,8.303l6.77,11.196
			h-5.121l-4.802-8.419l-1.649,2.055v6.364h-4.368V213.989z"/>
		<path d="M-290.648,233.488v-19.499h5.15l4.05,7.146c1.157,2.055,2.285,4.484,3.183,6.683h0.058
			c-0.261-2.574-0.347-5.207-0.347-8.158v-5.67h4.05v19.499h-4.629l-4.166-7.521c-1.157-2.084-2.459-4.601-3.385-6.886h-0.116
			c0.145,2.604,0.203,5.353,0.203,8.534v5.873H-290.648z"/>
		<path d="M-252.841,223.536c0,6.423-3.848,10.271-9.576,10.271c-5.757,0-9.171-4.368-9.171-9.952
			c0-5.845,3.761-10.213,9.489-10.213C-256.11,213.642-252.841,218.126-252.841,223.536z M-266.93,223.768
			c0,3.848,1.793,6.538,4.744,6.538c2.979,0,4.687-2.835,4.687-6.625c0-3.529-1.648-6.538-4.687-6.538
			C-265.194,217.143-266.93,219.978-266.93,223.768z"/>
		<path d="M-247.002,233.488l-4.629-19.499h4.716l1.476,8.014c0.434,2.343,0.839,4.86,1.157,6.827h0.058
			c0.318-2.111,0.781-4.455,1.273-6.885l1.648-7.956h4.688l1.563,8.216c0.434,2.285,0.752,4.369,1.041,6.538h0.058
			c0.29-2.169,0.724-4.455,1.129-6.798l1.591-7.956h4.484l-5.034,19.499h-4.773l-1.649-8.39c-0.376-1.968-0.694-3.79-0.926-6.018
			h-0.058c-0.347,2.198-0.665,4.05-1.128,6.018l-1.852,8.39H-247.002z"/>
		<path d="M-224.472,233.488v-19.499h5.149l4.051,7.146c1.157,2.055,2.285,4.484,3.183,6.683h0.058
			c-0.261-2.574-0.348-5.207-0.348-8.158v-5.67h4.051v19.499h-4.629l-4.166-7.521c-1.157-2.084-2.459-4.601-3.385-6.886h-0.116
			c0.146,2.604,0.203,5.353,0.203,8.534v5.873H-224.472z"/>
	</g>
	<g id="Layer_3">
		<g>
			<path d="M-384.976-100"/>
		</g>
	</g>
	<g>
		<rect x="-407.976" y="-97.715" width="3.519" height="17.619"/>
		<rect x="-397.356" y="-103.905" width="3.519" height="23.809"/>
		<rect x="-386.736" y="-107.714" width="3.52" height="27.619"/>
		<rect x="-376.115" y="-111.524" width="3.519" height="31.428"/>
		<rect x="-365.495" y="-120.095" width="3.519" height="40"/>
		<path fill="none" d="M-384.976-100"/>
	</g>
	<linearGradient id="SVGID_8_" gradientUnits="userSpaceOnUse" x1="-1000.5" y1="25.9492" x2="-849.5" y2="25.9492">
		<stop  offset="0.0167" style="stop-color:#1C4518"/>
		<stop  offset="0.0349" style="stop-color:#1B5514"/>
		<stop  offset="0.0745" style="stop-color:#1A710E"/>
		<stop  offset="0.1192" style="stop-color:#188809"/>
		<stop  offset="0.1702" style="stop-color:#179A05"/>
		<stop  offset="0.2315" style="stop-color:#17A702"/>
		<stop  offset="0.3132" style="stop-color:#16AE00"/>
		<stop  offset="0.5" style="stop-color:#16B000"/>
		<stop  offset="0.6315" style="stop-color:#16AD01"/>
		<stop  offset="0.7234" style="stop-color:#17A403"/>
		<stop  offset="0.8032" style="stop-color:#189506"/>
		<stop  offset="0.8761" style="stop-color:#197F0B"/>
		<stop  offset="0.9437" style="stop-color:#1A6311"/>
		<stop  offset="1" style="stop-color:#1C4518"/>
	</linearGradient>
	<path fill="url(#SVGID_8_)" d="M-925,109.75c-52.973,0-73.626-87.283-75.5-95.745v-55.127c20.97-15.486,58.532-16.73,69.903-16.73
		c3.278,0,5.235,0.093,5.254,0.094l0.343,0.017l0.347-0.017c0.016-0.001,1.971-0.094,5.25-0.094c11.371,0,48.933,1.244,69.903,16.73
		v55.124C-851.379,22.451-872.115,109.75-925,109.75L-925,109.75z"/>
	<path fill="#F2F2F2" d="M-930.597-50.853c3.071,0,4.901,0.085,4.905,0.085l0.693,0.033l0.678-0.032
		c0.018-0.001,1.846-0.086,4.918-0.086c10.307,0,43.239,1.034,62.903,13.417v50.675c-1.193,5.246-6.251,25.771-16.585,46.188
		c-6.709,13.256-14.225,23.678-22.337,30.977c-9.233,8.308-18.908,12.346-29.578,12.346c-10.603,0-20.22-3.987-29.403-12.189
		c-8.081-7.218-15.575-17.535-22.274-30.665C-987.11,39.446-992.29,18.518-993.5,13.229v-50.665
		C-973.836-49.819-940.904-50.853-930.597-50.853 M-919.403-64.853c-3.531,0-5.597,0.103-5.597,0.103s-2.069-0.103-5.597-0.103
		c-14.76,0-55.112,1.79-76.903,20.353v59.25c0,0,20.75,102,82.5,102s82.5-102,82.5-102V-44.5
		C-864.289-63.062-904.64-64.853-919.403-64.853L-919.403-64.853z"/>
	<path opacity="0.21" fill="#FFFFFF" d="M-924.653-57.759L-925-57.742l-0.343-0.017c-0.019-0.001-1.977-0.094-5.254-0.094
		c-11.371,0-48.933,1.244-69.903,16.73v55.127c0.584,2.637,2.992,12.93,7.634,25.85c34.52-15.491,85.501-31.835,143.366-29.257
		v-51.72c-20.97-15.486-58.532-16.73-69.903-16.73C-922.682-57.853-924.638-57.76-924.653-57.759z"/>
	<polygon fill="#FFFFFF" points="-904.095,-18.027 -927.857,43.373 -939.739,13.44 -963.5,13.44 -939.739,68.027 -915.976,68.027 
		-880.333,-18.027 	"/>
	<g>
		<linearGradient id="SVGID_9_" gradientUnits="userSpaceOnUse" x1="-401.0171" y1="25" x2="-368.9868" y2="25">
			<stop  offset="0.0167" style="stop-color:#1C4518"/>
			<stop  offset="0.0349" style="stop-color:#1B5514"/>
			<stop  offset="0.0745" style="stop-color:#1A710E"/>
			<stop  offset="0.1192" style="stop-color:#188809"/>
			<stop  offset="0.1702" style="stop-color:#179A05"/>
			<stop  offset="0.2315" style="stop-color:#17A702"/>
			<stop  offset="0.3132" style="stop-color:#16AE00"/>
			<stop  offset="0.5" style="stop-color:#16B000"/>
			<stop  offset="0.6315" style="stop-color:#16AD01"/>
			<stop  offset="0.7234" style="stop-color:#17A403"/>
			<stop  offset="0.8032" style="stop-color:#189506"/>
			<stop  offset="0.8761" style="stop-color:#197F0B"/>
			<stop  offset="0.9437" style="stop-color:#1A6311"/>
			<stop  offset="1" style="stop-color:#1C4518"/>
		</linearGradient>
		<path fill="url(#SVGID_9_)" d="M-385.002,42.776c-11.237,0-15.618-18.516-16.015-20.311V10.772
			c4.448-3.285,12.416-3.549,14.828-3.549c0.695,0,1.111,0.02,1.115,0.02l0.073,0.004l0.074-0.004c0.003,0,0.418-0.02,1.114-0.02
			c2.412,0,10.379,0.264,14.828,3.549v11.693C-369.385,24.258-373.784,42.776-385.002,42.776L-385.002,42.776z"/>
		<path fill="#F2F2F2" d="M-386.189,8.708c0.652,0,1.04,0.019,1.041,0.019l0.147,0.007l0.144-0.007c0.004,0,0.392-0.019,1.043-0.019
			c2.186,0,9.172,0.22,13.343,2.847v10.749c-0.253,1.113-1.326,5.467-3.518,9.797c-1.423,2.813-3.017,5.023-4.738,6.571
			c-1.958,1.763-4.011,2.619-6.274,2.619c-2.249,0-4.289-0.847-6.237-2.586c-1.714-1.53-3.304-3.72-4.725-6.505
			c-2.213-4.338-3.312-8.777-3.568-9.898V11.555C-395.361,8.928-388.375,8.708-386.189,8.708 M-383.814,5.739
			c-0.749,0-1.188,0.021-1.188,0.021s-0.439-0.021-1.188-0.021c-3.131,0-11.69,0.379-16.313,4.316v12.568
			c0,0,4.401,21.637,17.5,21.637s17.5-21.637,17.5-21.637V10.056C-372.124,6.118-380.683,5.739-383.814,5.739L-383.814,5.739z"/>
		<path opacity="0.21" fill="#FFFFFF" d="M-384.928,7.243l-0.074,0.004l-0.073-0.004c-0.004,0-0.419-0.02-1.115-0.02
			c-2.412,0-10.379,0.264-14.828,3.549v11.693c0.124,0.56,0.635,2.743,1.619,5.483c7.322-3.286,18.137-6.753,30.411-6.206V10.772
			c-4.448-3.285-12.416-3.549-14.828-3.549C-384.51,7.224-384.925,7.243-384.928,7.243z"/>
		<polygon fill="#FFFFFF" points="-380.567,15.671 -385.608,28.696 -388.128,22.347 -393.168,22.347 -388.128,33.925 
			-383.088,33.925 -375.527,15.671 		"/>
	</g>
	<linearGradient id="SVGID_10_" gradientUnits="userSpaceOnUse" x1="-1300.5" y1="25" x2="-1149.5" y2="25">
		<stop  offset="0.0042" style="stop-color:#D14747"/>
		<stop  offset="0.0651" style="stop-color:#CE3B3B"/>
		<stop  offset="0.245" style="stop-color:#C61B1B"/>
		<stop  offset="0.3964" style="stop-color:#C10707"/>
		<stop  offset="0.5" style="stop-color:#BF0000"/>
		<stop  offset="0.6045" style="stop-color:#C10606"/>
		<stop  offset="0.7463" style="stop-color:#C51717"/>
		<stop  offset="0.909" style="stop-color:#CC3434"/>
		<stop  offset="1" style="stop-color:#D14747"/>
	</linearGradient>
	<path fill="url(#SVGID_10_)" d="M-1225,108.801c-52.973,0-73.626-87.283-75.5-95.744V-42.07
		c20.97-15.486,58.532-16.73,69.903-16.73c3.278,0,5.235,0.092,5.254,0.094l0.343,0.016l0.347-0.016
		c0.016-0.002,1.971-0.094,5.25-0.094c11.371,0,48.933,1.244,69.903,16.73v55.123C-1151.379,21.502-1172.115,108.801-1225,108.801
		L-1225,108.801z"/>
	<path fill="#F2F2F2" d="M-1230.597-51.801c3.071,0,4.901,0.084,4.905,0.084l0.693,0.033l0.678-0.031
		c0.018-0.002,1.846-0.086,4.918-0.086c10.307,0,43.239,1.033,62.903,13.416v50.676c-1.193,5.246-6.251,25.77-16.585,46.188
		c-6.709,13.256-14.225,23.678-22.337,30.977c-9.233,8.309-18.908,12.346-29.578,12.346c-10.603,0-20.22-3.986-29.403-12.189
		c-8.081-7.217-15.575-17.535-22.274-30.664c-10.433-20.449-15.613-41.379-16.823-46.666v-50.666
		C-1273.836-50.768-1240.904-51.801-1230.597-51.801 M-1219.403-65.801c-3.531,0-5.597,0.102-5.597,0.102s-2.069-0.102-5.597-0.102
		c-14.76,0-55.112,1.789-76.903,20.352v59.25c0,0,20.75,102,82.5,102s82.5-102,82.5-102v-59.25
		C-1164.289-64.01-1204.64-65.801-1219.403-65.801L-1219.403-65.801z"/>
	<path opacity="0.21" fill="#FFFFFF" d="M-1224.653-58.707l-0.347,0.016l-0.343-0.016c-0.019-0.002-1.977-0.094-5.254-0.094
		c-11.371,0-48.933,1.244-69.903,16.73v55.127c0.584,2.637,2.992,12.93,7.634,25.85c34.52-15.492,85.501-31.836,143.366-29.258
		V-42.07c-20.97-15.486-58.532-16.73-69.903-16.73C-1222.682-58.801-1224.638-58.709-1224.653-58.707z"/>
	<g>
		<path fill="#FFFFFF" d="M-1210.549,58.979l-7.699-12.302c-3.155-4.738-5.174-8.269-7.572-12.2h-0.252
			c-1.767,3.932-3.913,7.462-6.689,12.2l-6.942,12.302h-21.96l24.611-34.384l-23.728-33.575h22.087l7.447,12.402
			c2.524,4.133,4.417,7.461,6.437,11.292h0.252c2.02-4.334,3.66-7.359,5.806-11.292l7.194-12.402h21.961l-23.98,33.173
			l25.242,34.786H-1210.549z"/>
	</g>
	<g>
		<linearGradient id="SVGID_11_" gradientUnits="userSpaceOnUse" x1="-401.0552" y1="125" x2="-369.0249" y2="125">
			<stop  offset="0.0042" style="stop-color:#D14747"/>
			<stop  offset="0.0651" style="stop-color:#CE3B3B"/>
			<stop  offset="0.245" style="stop-color:#C61B1B"/>
			<stop  offset="0.3964" style="stop-color:#C10707"/>
			<stop  offset="0.5" style="stop-color:#BF0000"/>
			<stop  offset="0.6045" style="stop-color:#C10606"/>
			<stop  offset="0.7463" style="stop-color:#C51717"/>
			<stop  offset="0.909" style="stop-color:#CC3434"/>
			<stop  offset="1" style="stop-color:#D14747"/>
		</linearGradient>
		<path fill="url(#SVGID_11_)" d="M-385.04,142.775c-11.237,0-15.618-18.514-16.015-20.309v-11.693
			c4.448-3.285,12.416-3.549,14.828-3.549c0.695,0,1.111,0.02,1.115,0.02l0.073,0.003l0.074-0.003c0.003,0,0.418-0.02,1.114-0.02
			c2.412,0,10.379,0.264,14.828,3.549v11.692C-369.423,124.258-373.822,142.775-385.04,142.775L-385.04,142.775z"/>
		<path fill="#F2F2F2" d="M-386.228,108.709c0.652,0,1.04,0.018,1.041,0.018l0.147,0.008l0.144-0.008
			c0.004,0,0.392-0.018,1.043-0.018c2.186,0,9.172,0.219,13.343,2.846v10.75c-0.253,1.112-1.326,5.466-3.518,9.797
			c-1.423,2.813-3.017,5.022-4.738,6.57c-1.958,1.763-4.011,2.619-6.274,2.619c-2.249,0-4.289-0.846-6.237-2.586
			c-1.714-1.53-3.304-3.719-4.725-6.504c-2.213-4.338-3.312-8.777-3.568-9.898v-10.748
			C-395.399,108.928-388.414,108.709-386.228,108.709 M-383.853,105.739c-0.749,0-1.188,0.021-1.188,0.021s-0.439-0.021-1.188-0.021
			c-3.131,0-11.69,0.38-16.313,4.317v12.568c0,0,4.401,21.636,17.5,21.636s17.5-21.636,17.5-21.636v-12.568
			C-372.162,106.119-380.721,105.739-383.853,105.739L-383.853,105.739z"/>
		<path opacity="0.21" fill="#FFFFFF" d="M-384.966,107.244l-0.074,0.003l-0.073-0.003c-0.004,0-0.419-0.02-1.115-0.02
			c-2.412,0-10.379,0.264-14.828,3.549v11.693c0.124,0.559,0.635,2.742,1.619,5.482c7.322-3.285,18.137-6.752,30.411-6.205v-10.971
			c-4.448-3.285-12.416-3.549-14.828-3.549C-384.548,107.225-384.963,107.244-384.966,107.244z"/>
		<g>
			<path fill="#FFFFFF" d="M-381.975,132.208l-1.633-2.61c-0.669-1.004-1.098-1.754-1.606-2.588h-0.054
				c-0.375,0.834-0.83,1.584-1.419,2.588l-1.473,2.61h-4.658l5.221-7.294l-5.033-7.122h4.685l1.58,2.631
				c0.535,0.877,0.937,1.583,1.365,2.396h0.054c0.428-0.92,0.776-1.561,1.231-2.396l1.526-2.631h4.659l-5.087,7.037l5.354,7.379
				H-381.975z"/>
		</g>
	</g>
	<linearGradient id="SVGID_12_" gradientUnits="userSpaceOnUse" x1="-1600.5" y1="25" x2="-1449.5" y2="25">
		<stop  offset="0.0042" style="stop-color:#C9C9C9"/>
		<stop  offset="0.5" style="stop-color:#595959"/>
		<stop  offset="0.578" style="stop-color:#5F5F5F"/>
		<stop  offset="0.6841" style="stop-color:#717171"/>
		<stop  offset="0.8062" style="stop-color:#8D8D8D"/>
		<stop  offset="0.9393" style="stop-color:#B4B4B4"/>
		<stop  offset="1" style="stop-color:#C9C9C9"/>
	</linearGradient>
	<path fill="url(#SVGID_12_)" d="M-1525,108.801c-52.973,0-73.626-87.283-75.5-95.744V-42.07
		c20.97-15.486,58.532-16.73,69.903-16.73c3.278,0,5.235,0.092,5.254,0.094l0.343,0.016l0.347-0.016
		c0.016-0.002,1.971-0.094,5.25-0.094c11.371,0,48.933,1.244,69.903,16.73v55.123C-1451.379,21.502-1472.115,108.801-1525,108.801
		L-1525,108.801z"/>
	<path d="M-1530.597-51.801c3.071,0,4.901,0.084,4.905,0.084l0.693,0.033l0.678-0.031c0.018-0.002,1.846-0.086,4.918-0.086
		c10.307,0,43.239,1.033,62.903,13.416v50.676c-1.193,5.246-6.251,25.77-16.585,46.188c-6.709,13.256-14.225,23.678-22.337,30.977
		c-9.233,8.309-18.908,12.346-29.578,12.346c-10.603,0-20.22-3.986-29.403-12.189c-8.081-7.217-15.575-17.535-22.274-30.664
		c-10.433-20.449-15.613-41.379-16.823-46.666v-50.666C-1573.836-50.768-1540.904-51.801-1530.597-51.801 M-1519.403-65.801
		c-3.531,0-5.597,0.102-5.597,0.102s-2.069-0.102-5.597-0.102c-14.76,0-55.112,1.789-76.903,20.352v59.25c0,0,20.75,102,82.5,102
		s82.5-102,82.5-102v-59.25C-1464.289-64.01-1504.64-65.801-1519.403-65.801L-1519.403-65.801z"/>
	<path opacity="0.21" fill="#FFFFFF" d="M-1524.653-58.707l-0.347,0.016l-0.343-0.016c-0.019-0.002-1.977-0.094-5.254-0.094
		c-11.371,0-48.933,1.244-69.903,16.73v55.127c0.584,2.637,2.992,12.93,7.634,25.85c34.52-15.492,85.501-31.836,143.366-29.258
		V-42.07c-20.97-15.486-58.532-16.73-69.903-16.73C-1522.682-58.801-1524.638-58.709-1524.653-58.707z"/>
	<g>
		<path fill="#FFFFFF" d="M-1610.812-158.818l-0.158-4.101c-0.474-8.038,2.208-16.235,9.302-24.591
			c5.046-6.149,9.143-11.352,9.143-16.554c0-5.518-3.625-9.303-11.507-9.459c-5.202,0-11.51,1.891-15.607,4.729l-5.361-17.183
			c5.833-3.312,15.133-6.463,26.327-6.463c20.809,0,30.425,11.507,30.425,24.591c0,11.983-7.567,19.864-13.556,26.485
			c-5.677,6.465-8.199,12.612-8.04,19.707v2.838H-1610.812z M-1614.91-136.905c0-8.514,5.832-14.347,14.029-14.347
			c8.514,0,14.031,5.833,14.188,14.347c0,8.198-5.518,14.345-14.188,14.345C-1609.234-122.561-1614.91-128.707-1614.91-136.905z"/>
	</g>
	<g>
		<linearGradient id="SVGID_13_" gradientUnits="userSpaceOnUse" x1="-399.9453" y1="225" x2="-367.915" y2="225">
			<stop  offset="0.0042" style="stop-color:#C9C9C9"/>
			<stop  offset="0.5" style="stop-color:#595959"/>
			<stop  offset="0.578" style="stop-color:#5F5F5F"/>
			<stop  offset="0.6841" style="stop-color:#717171"/>
			<stop  offset="0.8062" style="stop-color:#8D8D8D"/>
			<stop  offset="0.9393" style="stop-color:#B4B4B4"/>
			<stop  offset="1" style="stop-color:#C9C9C9"/>
		</linearGradient>
		<path fill="url(#SVGID_13_)" d="M-383.93,242.776c-11.237,0-15.618-18.515-16.015-20.31v-11.693
			c4.448-3.285,12.416-3.55,14.828-3.55c0.695,0,1.111,0.02,1.115,0.021l0.073,0.003l0.074-0.003
			c0.003-0.001,0.418-0.021,1.114-0.021c2.412,0,10.379,0.265,14.828,3.55v11.692C-368.313,224.258-372.712,242.776-383.93,242.776
			L-383.93,242.776z"/>
		<path d="M-385.118,208.709c0.652,0,1.04,0.018,1.041,0.018l0.147,0.007l0.144-0.006c0.004-0.001,0.392-0.019,1.043-0.019
			c2.186,0,9.172,0.219,13.343,2.846v10.749c-0.253,1.113-1.326,5.467-3.518,9.798c-1.423,2.812-3.017,5.022-4.738,6.57
			c-1.958,1.763-4.011,2.619-6.274,2.619c-2.249,0-4.289-0.846-6.237-2.586c-1.714-1.53-3.304-3.719-4.725-6.504
			c-2.213-4.338-3.312-8.777-3.568-9.899v-10.747C-394.29,208.928-387.304,208.709-385.118,208.709 M-382.743,205.739
			c-0.749,0-1.188,0.021-1.188,0.021s-0.439-0.021-1.188-0.021c-3.131,0-11.69,0.38-16.313,4.317v12.567
			c0,0,4.401,21.637,17.5,21.637s17.5-21.637,17.5-21.637v-12.567C-371.052,206.119-379.611,205.739-382.743,205.739
			L-382.743,205.739z"/>
		<path opacity="0.21" fill="#FFFFFF" d="M-383.856,207.244l-0.074,0.003l-0.073-0.003c-0.004-0.001-0.419-0.021-1.115-0.021
			c-2.412,0-10.379,0.265-14.828,3.55v11.693c0.124,0.559,0.635,2.742,1.619,5.483c7.322-3.286,18.137-6.754,30.411-6.207v-10.97
			c-4.448-3.285-12.416-3.55-14.828-3.55C-383.438,207.224-383.854,207.243-383.856,207.244z"/>
		<g>
			<path fill="#FFFFFF" d="M-386.94,228.963l-0.033-0.87c-0.101-1.705,0.468-3.443,1.973-5.216c1.07-1.305,1.939-2.408,1.939-3.512
				c0-1.17-0.769-1.974-2.441-2.007c-1.104,0-2.442,0.401-3.311,1.004l-1.137-3.646c1.237-0.702,3.21-1.371,5.584-1.371
				c4.414,0,6.454,2.441,6.454,5.217c0,2.542-1.605,4.214-2.875,5.618c-1.204,1.371-1.739,2.675-1.706,4.18v0.603H-386.94z
				 M-387.809,233.611c0-1.807,1.237-3.044,2.976-3.044c1.806,0,2.976,1.237,3.009,3.044c0,1.738-1.17,3.043-3.009,3.043
				C-386.605,236.654-387.809,235.35-387.809,233.611z"/>
		</g>
	</g>
	<g>
		<path fill="#FFFFFF" d="M-1510.549,58.979l-7.699-12.302c-3.155-4.738-5.174-8.269-7.572-12.2h-0.252
			c-1.767,3.932-3.913,7.462-6.689,12.2l-6.942,12.302h-21.96l24.611-34.384l-23.728-33.575h22.087l7.447,12.402
			c2.524,4.133,4.417,7.461,6.437,11.292h0.252c2.02-4.334,3.66-7.359,5.806-11.292l7.194-12.402h21.961l-23.98,33.173
			l25.242,34.786H-1510.549z"/>
	</g>
	<g>
		<linearGradient id="SVGID_14_" gradientUnits="userSpaceOnUse" x1="125.25" y1="49" x2="125.25" y2="-0.9592">
			<stop  offset="0" style="stop-color:#FFFFFF"/>
			<stop  offset="0.2015" style="stop-color:#D1D1D1"/>
			<stop  offset="0.6336" style="stop-color:#747474"/>
			<stop  offset="0.8287" style="stop-color:#4F4F4F"/>
		</linearGradient>
		<path fill="url(#SVGID_14_)" d="M15.25,49c-7.72,0-14-6.28-14-14V15c0-7.72,6.28-14,14-14h220c7.72,0,14,6.28,14,14v20
			c0,7.72-6.28,14-14,14H15.25z"/>
		<path d="M235.25,2c7.168,0,13,5.832,13,13v20c0,7.168-5.832,13-13,13h-220c-7.168,0-13-5.832-13-13V15c0-7.168,5.832-13,13-13
			H235.25 M235.25,0h-220c-8.25,0-15,6.75-15,15v20c0,8.25,6.75,15,15,15h220c8.25,0,15-6.75,15-15V15C250.25,6.75,243.5,0,235.25,0
			L235.25,0z"/>
	</g>
	<linearGradient id="SVGID_15_" gradientUnits="userSpaceOnUse" x1="124.75" y1="29.4424" x2="124.75" y2="0">
		<stop  offset="0" style="stop-color:#FDFDFE;stop-opacity:0"/>
		<stop  offset="0.0615" style="stop-color:#FDFDFE;stop-opacity:0.0615"/>
		<stop  offset="1" style="stop-color:#FDFDFE"/>
	</linearGradient>
	<path opacity="0.5" fill="url(#SVGID_15_)" d="M234.75,0h-220c-8.25,0-15,6.75-15,15v6.311
		c26.785,4.935,69.633,8.132,117.926,8.132c58.026,0,108.191-4.616,132.074-11.317V15C249.75,6.75,243,0,234.75,0z"/>
	<g>
		<linearGradient id="SVGID_16_" gradientUnits="userSpaceOnUse" x1="23.9844" y1="25" x2="56.0156" y2="25">
			<stop  offset="0.0042" style="stop-color:#C9C9C9"/>
			<stop  offset="0.5" style="stop-color:#595959"/>
			<stop  offset="0.578" style="stop-color:#5F5F5F"/>
			<stop  offset="0.6841" style="stop-color:#717171"/>
			<stop  offset="0.8062" style="stop-color:#8D8D8D"/>
			<stop  offset="0.9393" style="stop-color:#B4B4B4"/>
			<stop  offset="1" style="stop-color:#C9C9C9"/>
		</linearGradient>
		<path fill="url(#SVGID_16_)" d="M40,42.776c-11.236,0-15.617-18.515-16.016-20.31V10.773c4.449-3.285,12.416-3.55,14.828-3.55
			c0.695,0,1.111,0.02,1.115,0.021L40,7.247l0.074-0.003c0.002-0.001,0.418-0.021,1.113-0.021c2.412,0,10.379,0.265,14.828,3.55
			v11.692C55.617,24.258,51.219,42.776,40,42.776L40,42.776z"/>
		<path d="M38.813,8.709c0.652,0,1.04,0.018,1.041,0.018L40,8.733l0.145-0.006c0.004-0.001,0.391-0.019,1.043-0.019
			c2.186,0,9.172,0.219,13.343,2.846v10.749c-0.253,1.113-1.326,5.467-3.519,9.798c-1.422,2.812-3.017,5.022-4.738,6.57
			c-1.958,1.763-4.01,2.619-6.273,2.619c-2.249,0-4.289-0.846-6.237-2.586c-1.714-1.53-3.304-3.719-4.725-6.504
			c-2.213-4.338-3.312-8.777-3.568-9.899V11.555C29.641,8.928,36.627,8.709,38.813,8.709 M41.188,5.739
			C40.438,5.739,40,5.761,40,5.761s-0.439-0.021-1.188-0.021c-3.131,0-11.69,0.38-16.313,4.317v12.567c0,0,4.401,21.637,17.5,21.637
			s17.5-21.637,17.5-21.637V10.057C52.878,6.119,44.318,5.739,41.188,5.739L41.188,5.739z"/>
		<path opacity="0.21" fill="#FFFFFF" d="M40.074,7.244L40,7.247l-0.072-0.003c-0.004-0.001-0.42-0.021-1.115-0.021
			c-2.412,0-10.379,0.265-14.828,3.55v11.693c0.125,0.559,0.635,2.742,1.619,5.483c7.322-3.286,18.137-6.754,30.412-6.207v-10.97
			c-4.449-3.285-12.416-3.55-14.828-3.55C40.492,7.224,40.076,7.243,40.074,7.244z"/>
		<g>
			<path fill="#FFFFFF" d="M43.065,32.208l-1.634-2.609c-0.668-1.006-1.098-1.754-1.605-2.588h-0.054
				c-0.375,0.834-0.83,1.582-1.419,2.588l-1.473,2.609h-4.658l5.221-7.294l-5.033-7.122h4.686l1.579,2.631
				c0.535,0.877,0.937,1.583,1.365,2.396h0.054c0.428-0.919,0.776-1.562,1.231-2.396l1.526-2.631h4.658l-5.087,7.037l5.354,7.379
				H43.065z"/>
		</g>
	</g>
	<g>
		<path d="M81.336,13.99v19.499h-4.397V13.99H81.336z"/>
		<path d="M85.152,33.489V13.99h5.15l4.05,7.146c1.157,2.054,2.286,4.484,3.183,6.683h0.058c-0.261-2.574-0.347-5.207-0.347-8.158
			v-5.67h4.05v19.499h-4.629l-4.166-7.522c-1.157-2.082-2.459-4.6-3.385-6.885H89c0.145,2.604,0.203,5.352,0.203,8.534v5.873H85.152
			z"/>
		<path d="M109.652,28.484l-1.389,5.005h-4.543l5.932-19.499h5.785l6.076,19.499h-4.773l-1.505-5.005H109.652z M114.599,25.186
			l-1.215-4.137c-0.347-1.157-0.694-2.604-0.983-3.761h-0.059c-0.289,1.157-0.578,2.633-0.896,3.761l-1.157,4.137H114.599z"/>
		<path d="M137.652,32.969c-0.781,0.376-2.633,0.839-4.977,0.839c-6.74,0-10.213-4.224-10.213-9.778
			c0-6.654,4.745-10.328,10.646-10.328c2.286,0,4.021,0.434,4.803,0.867l-0.926,3.472c-0.868-0.376-2.111-0.724-3.703-0.724
			c-3.472,0-6.191,2.112-6.191,6.452c0,3.905,2.314,6.364,6.221,6.364c1.359,0,2.806-0.26,3.703-0.636L137.652,32.969z"/>
		<path d="M144.764,17.693h-5.266V13.99h14.986v3.703h-5.323v15.796h-4.397V17.693z"/>
		<path d="M161.251,13.99v19.499h-4.397V13.99H161.251z"/>
		<path d="M169.668,33.489l-6.249-19.499h4.831l2.372,8.245c0.666,2.343,1.273,4.542,1.736,6.972h0.087
			c0.491-2.343,1.099-4.657,1.765-6.885l2.487-8.332h4.688l-6.567,19.499H169.668z"/>
		<path d="M195.063,25.244h-7.175v4.629h8.014v3.616h-12.411V13.99h12.006v3.616h-7.608v4.05h7.175V25.244z"/>
	</g>
	<g>
		<path d="M235.25,2c7.168,0,13,5.832,13,13v20c0,7.168-5.832,13-13,13h-220c-7.168,0-13-5.832-13-13V15c0-7.168,5.832-13,13-13
			H235.25 M235.25,0h-220c-8.25,0-15,6.75-15,15v20c0,8.25,6.75,15,15,15h220c8.25,0,15-6.75,15-15V15C250.25,6.75,243.5,0,235.25,0
			L235.25,0z"/>
	</g>
</g>
</svg>
