<?xml version="1.0" encoding="utf-8"?>
<!-- Generator: Adobe Illustrator 14.0.0, SVG Export Plug-In . SVG Version: 6.00 Build 43363)  -->
<!DOCTYPE svg PUBLIC "-//W3C//DTD SVG 1.1//EN" "http://www.w3.org/Graphics/SVG/1.1/DTD/svg11.dtd">
<svg version="1.1" id="Layer_1" xmlns="http://www.w3.org/2000/svg" xmlns:xlink="http://www.w3.org/1999/xlink" x="0px" y="0px"
	 width="400px" height="400px" viewBox="0 0 400 400" enable-background="new 0 0 400 400" xml:space="preserve">
<g>
	<rect x="0.078" y="-0.799" fill="#FFFFFF" stroke="#000000" width="400" height="400"/>
	<g>
		<path d="M200.078,10.261c25.509,0,50.253,4.995,73.542,14.845c22.5,9.516,42.706,23.14,60.059,40.494
			c17.354,17.354,30.977,37.56,40.493,60.059c9.852,23.291,14.847,48.034,14.847,73.542c0,25.509-4.995,50.252-14.847,73.542
			c-9.517,22.5-23.14,42.706-40.493,60.058c-17.353,17.354-37.559,30.977-60.059,40.493c-23.289,9.851-48.033,14.846-73.542,14.846
			s-50.252-4.995-73.543-14.846c-22.498-9.516-42.705-23.139-60.058-40.493c-17.353-17.353-30.977-37.558-40.493-60.058
			c-9.851-23.29-14.846-48.033-14.846-73.542c0-25.508,4.995-50.251,14.846-73.542C35.5,103.16,49.125,82.954,66.478,65.6
			c17.353-17.354,37.56-30.978,60.058-40.494C149.826,15.256,174.569,10.261,200.078,10.261 M200.078,6.077
			C93.419,6.077,6.954,92.542,6.954,199.201c0,106.659,86.465,193.124,193.124,193.124c106.659,0,193.123-86.465,193.123-193.124
			C393.201,92.542,306.737,6.077,200.078,6.077L200.078,6.077z"/>
		<path fill="#0000FF" d="M200.078,104.989c25.165,0,48.823,9.799,66.618,27.594c17.794,17.794,27.594,41.454,27.594,66.618
			c0,25.165-9.8,48.824-27.594,66.619c-17.795,17.793-41.453,27.594-66.618,27.594c-25.164,0-48.823-9.801-66.618-27.594
			c-17.794-17.795-27.594-41.454-27.594-66.619c0-25.164,9.8-48.823,27.594-66.618C151.255,114.789,174.913,104.989,200.078,104.989
			 M200.078,96.622c-56.653,0-102.579,45.926-102.579,102.579S143.425,301.78,200.078,301.78s102.579-45.926,102.579-102.579
			S256.731,96.622,200.078,96.622L200.078,96.622z"/>
		<g>
			<path d="M183.542,347.816l-0.27-4.175c3.276-0.211,6.592-0.538,9.857-0.97l0.549,4.148
				C190.322,347.263,186.912,347.599,183.542,347.816L183.542,347.816z M203.724,345.142l-0.826-4.099
				c3.221-0.651,6.462-1.417,9.636-2.281l1.1,4.036C210.369,343.686,207.035,344.475,203.724,345.142L203.724,345.142z
				 M223.36,339.797l-1.366-3.956c3.107-1.073,6.218-2.266,9.244-3.543l1.627,3.854C229.753,337.466,226.555,338.692,223.36,339.797
				L223.36,339.797z M242.107,331.885l-1.881-3.736c2.932-1.475,5.857-3.068,8.693-4.737l2.123,3.606
				C248.127,328.732,245.12,330.371,242.107,331.885L242.107,331.885z M259.635,321.567l-2.354-3.457
				c2.714-1.851,5.402-3.815,7.989-5.842l2.58,3.293C265.19,317.646,262.426,319.665,259.635,321.567L259.635,321.567z
				 M275.646,309.025l-2.792-3.115c2.449-2.195,4.854-4.499,7.146-6.847l2.993,2.924
				C280.637,304.401,278.165,306.769,275.646,309.025L275.646,309.025z M289.854,294.478l-3.182-2.718
				c2.136-2.5,4.212-5.1,6.171-7.731l3.355,2.499C294.185,289.233,292.05,291.908,289.854,294.478L289.854,294.478z
				 M301.998,278.172l-3.516-2.268c1.779-2.757,3.49-5.612,5.082-8.483l3.658,2.029
				C305.586,272.402,303.827,275.337,301.998,278.172L301.998,278.172z M311.854,260.388l-3.788-1.778
				c1.396-2.972,2.71-6.031,3.903-9.093l3.897,1.52C314.639,254.186,313.289,257.332,311.854,260.388L311.854,260.388z
				 M185.994,252.769c-3.064,0-6.167-0.225-9.22-0.671l0.604-4.139c3.203,0.467,6.462,0.678,9.669,0.617l0.075,4.184
				C186.747,252.765,186.371,252.769,185.994,252.769L185.994,252.769z M197.441,251.726l-0.756-4.115
				c3.169-0.582,6.315-1.431,9.354-2.522l1.414,3.937C204.201,250.194,200.833,251.103,197.441,251.726L197.441,251.726z
				 M166.697,249.872c-3.296-0.961-6.553-2.144-9.684-3.518l1.683-3.831c2.963,1.301,6.05,2.423,9.171,3.332L166.697,249.872
				L166.697,249.872z M216.894,244.742l-2.032-3.657c2.821-1.567,5.534-3.375,8.063-5.375l2.594,3.282
				C222.813,241.13,219.91,243.065,216.894,244.742L216.894,244.742z M147.871,241.6c-2.927-1.772-5.766-3.758-8.439-5.9
				l2.617-3.263c2.53,2.029,5.22,3.909,7.99,5.587L147.871,241.6L147.871,241.6z M319.247,241.441l-3.989-1.257
				c0.986-3.131,1.881-6.338,2.66-9.533l4.064,0.99C321.183,234.925,320.262,238.223,319.247,241.441L319.247,241.441z
				 M233.104,231.927l-3.09-2.82c2.177-2.386,4.17-4.963,5.924-7.661l3.508,2.281C237.568,226.615,235.435,229.375,233.104,231.927
				L233.104,231.927z M131.832,228.75c-2.37-2.467-4.604-5.117-6.638-7.876l3.367-2.483c1.928,2.614,4.044,5.125,6.289,7.463
				L131.832,228.75L131.832,228.75z M324.061,221.669l-4.125-0.699c0.548-3.237,0.967-6.529,1.247-9.786l4.168,0.357
				C325.063,214.911,324.627,218.319,324.061,221.669L324.061,221.669z M244.367,214.601l-3.832-1.679
				c1.29-2.946,2.35-6.028,3.149-9.159l4.055,1.034C246.882,208.149,245.749,211.447,244.367,214.601L244.367,214.601z
				 M191.009,213.708c-1.796,0-3.605-0.179-5.377-0.533c-0.658-0.133-1.313-0.282-1.944-0.447l1.057-4.048
				c0.563,0.147,1.133,0.277,1.709,0.394c2.449,0.487,4.979,0.582,7.453,0.267l0.524,4.152
				C193.3,213.635,192.147,213.708,191.009,213.708L191.009,213.708z M119.627,212.205c-1.662-3-3.143-6.132-4.402-9.316
				l3.891-1.537c1.193,3.015,2.596,5.984,4.17,8.825L119.627,212.205L119.627,212.205z M204.665,210.038l-2.094-3.623
				c2.686-1.55,4.997-3.584,6.871-6.043l3.327,2.537C210.559,205.809,207.832,208.208,204.665,210.038L204.665,210.038z
				 M173.931,208.44c-3.001-1.939-5.665-4.338-7.919-7.131l3.255-2.627c1.975,2.445,4.308,4.547,6.935,6.246L173.931,208.44
				L173.931,208.44z M325.796,201.334h-4.183v-0.243c0-3.189-0.133-6.425-0.395-9.613l4.17-0.341
				c0.271,3.299,0.408,6.651,0.408,9.964L325.796,201.334L325.796,201.334z M249.406,194.516l-4.176-0.261
				c0.063-0.976,0.093-1.967,0.093-2.944c0-2.217-0.159-4.452-0.473-6.646l4.141-0.591c0.343,2.388,0.516,4.824,0.516,7.238
				C249.507,192.374,249.473,193.454,249.406,194.516L249.406,194.516z M217.479,193.19l-4.051-1.045
				c0.108-0.421,0.207-0.849,0.293-1.281l4.103,0.817C217.723,192.19,217.607,192.693,217.479,193.19L217.479,193.19z
				 M112.068,193.077c-0.836-3.328-1.459-6.739-1.852-10.142l4.155-0.48c0.373,3.221,0.963,6.452,1.754,9.602L112.068,193.077
				L112.068,193.077z M160.707,192.068c-1.272-3.354-1.998-6.868-2.153-10.443l4.179-0.181c0.137,3.128,0.771,6.202,1.886,9.139
				L160.707,192.068L160.707,192.068z M320.001,181.693c-0.54-3.228-1.224-6.473-2.033-9.648l4.053-1.033
				c0.839,3.288,1.548,6.649,2.107,9.99L320.001,181.693L320.001,181.693z M242.528,175.353c-1.086-3.007-2.484-5.918-4.157-8.653
				l3.57-2.183c1.819,2.975,3.341,6.142,4.521,9.415L242.528,175.353L242.528,175.353z M113.889,172.703l-4.183-0.068
				c0.055-3.417,0.336-6.871,0.835-10.27l4.14,0.607C114.207,166.193,113.94,169.467,113.889,172.703L113.889,172.703z
				 M163.797,172.13l-4.045-1.063c0.898-3.42,2.228-6.709,3.951-9.773l3.646,2.049C165.801,166.098,164.606,169.056,163.797,172.13
				L163.797,172.13z M315.134,162.599c-1.07-3.091-2.284-6.179-3.61-9.177l3.827-1.691c1.371,3.104,2.629,6.301,3.736,9.501
				L315.134,162.599L315.134,162.599z M232.563,159.06c-2.188-2.342-4.619-4.464-7.226-6.309l2.418-3.416
				c2.838,2.009,5.483,4.321,7.865,6.869L232.563,159.06L232.563,159.06z M173.009,155.739l-3.012-2.904
				c2.445-2.535,5.209-4.756,8.216-6.603l2.188,3.565C177.695,151.459,175.208,153.458,173.009,155.739L173.009,155.739z
				 M116.679,153.381l-4.045-1.069c0.874-3.3,1.925-6.585,3.131-9.761l3.912,1.482C118.522,147.076,117.514,150.221,116.679,153.381
				L116.679,153.381z M216.982,148.035c-2.919-1.272-5.995-2.256-9.14-2.922l0.867-4.093c3.421,0.725,6.767,1.795,9.945,3.181
				L216.982,148.035L216.982,148.035z M189.044,145.896l-1.225-4c3.377-1.033,6.874-1.631,10.395-1.777l0.173,4.181
				C195.224,144.43,192.079,144.967,189.044,145.896L189.044,145.896z M307.164,144.574c-1.568-2.875-3.276-5.721-5.077-8.456
				l3.495-2.299c1.863,2.832,3.632,5.775,5.255,8.752L307.164,144.574L307.164,144.574z M123.629,135.052l-3.735-1.884
				c1.534-3.042,3.247-6.036,5.09-8.9l3.518,2.265C126.737,129.274,125.098,132.141,123.629,135.052L123.629,135.052z
				 M296.329,128.111c-2.021-2.578-4.176-5.103-6.401-7.503l3.066-2.845c2.305,2.485,4.535,5.099,6.628,7.767L296.329,128.111
				L296.329,128.111z M134.236,118.573l-3.262-2.619c2.13-2.653,4.425-5.225,6.823-7.645l2.973,2.944
				C138.474,113.571,136.275,116.035,134.236,118.573L134.236,118.573z M282.927,113.662c-2.42-2.208-4.961-4.34-7.554-6.338
				l2.554-3.314c2.684,2.068,5.315,4.276,7.82,6.563L282.927,113.662L282.927,113.662z M148.03,104.648l-2.651-3.237
				c2.635-2.157,5.411-4.202,8.254-6.076l2.303,3.492C153.212,100.624,150.553,102.582,148.03,104.648L148.03,104.648z
				 M267.318,101.639c-2.754-1.776-5.615-3.455-8.503-4.99l1.965-3.694c2.989,1.59,5.952,3.328,8.805,5.167L267.318,101.639
				L267.318,101.639z M164.401,93.855l-1.931-3.712c3.023-1.571,6.163-3.002,9.33-4.25l1.534,3.892
				C170.302,90.98,167.296,92.35,164.401,93.855L164.401,93.855z M249.925,92.39c-3.006-1.288-6.106-2.467-9.217-3.501l1.321-3.969
				c3.222,1.072,6.432,2.291,9.542,3.625L249.925,92.39L249.925,92.39z M182.645,86.664l-1.121-4.03
				c3.283-0.913,6.652-1.664,10.012-2.229l0.694,4.125C189.013,85.072,185.787,85.79,182.645,86.664L182.645,86.664z M231.23,86.164
				c-1.629-0.397-3.29-0.765-4.938-1.092c-1.564-0.312-3.151-0.586-4.719-0.819l0.611-4.139c1.636,0.242,3.294,0.53,4.925,0.854
				c1.705,0.339,3.425,0.72,5.11,1.13L231.23,86.164L231.23,86.164z M201.983,83.412l-0.257-4.175
				c3.404-0.209,6.861-0.241,10.253-0.095l-0.181,4.18C208.552,83.182,205.243,83.211,201.983,83.412L201.983,83.412z"/>
		</g>
		<polygon points="181.799,371.993 131.767,343.106 181.799,314.22 		"/>
	</g>
</g>
</svg>
