<?xml version="1.0" encoding="utf-8"?>
<!-- Generator: Adobe Illustrator 14.0.0, SVG Export Plug-In . SVG Version: 6.00 Build 43363)  -->
<!DOCTYPE svg PUBLIC "-//W3C//DTD SVG 1.1//EN" "http://www.w3.org/Graphics/SVG/1.1/DTD/svg11.dtd">
<svg version="1.1" id="Layer_1" xmlns="http://www.w3.org/2000/svg" xmlns:xlink="http://www.w3.org/1999/xlink" x="0px" y="0px"
	 width="500px" height="500px" viewBox="0 0 500 500" enable-background="new 0 0 500 500" xml:space="preserve">
<g>
	<rect x="0.712" y="0.712" fill="#FFFFFF" stroke="#000000" width="498.576" height="498.575"/>
	<g>
		<path d="M250,14.498c31.794,0,62.636,6.226,91.666,18.504c28.045,11.861,53.23,28.842,74.859,50.473
			c21.63,21.63,38.61,46.815,50.473,74.859c12.278,29.03,18.505,59.871,18.505,91.666c0,31.795-6.227,62.637-18.505,91.666
			c-11.862,28.045-28.843,53.23-50.473,74.859c-21.629,21.631-46.814,38.611-74.859,50.473
			c-29.029,12.279-59.871,18.504-91.666,18.504c-31.795,0-62.636-6.225-91.667-18.504c-28.043-11.861-53.229-28.842-74.858-50.473
			c-21.63-21.629-38.611-46.814-50.473-74.859C20.724,312.637,14.498,281.795,14.498,250c0-31.794,6.226-62.636,18.504-91.666
			c11.861-28.044,28.843-53.229,50.473-74.859c21.629-21.631,46.815-38.612,74.858-50.473C187.364,20.724,218.206,14.498,250,14.498
			 M250,9.283C117.056,9.283,9.283,117.056,9.283,250c0,132.943,107.773,240.717,240.718,240.717
			c132.944,0,240.716-107.773,240.716-240.717C490.717,117.056,382.944,9.283,250,9.283L250,9.283z"/>
		<path fill="#0000FF" d="M250,132.571c31.367,0,60.855,12.214,83.035,34.394S367.43,218.634,367.43,250
			c0,31.367-12.215,60.855-34.395,83.035S281.367,367.43,250,367.43c-31.366,0-60.856-12.215-83.036-34.395
			S132.57,281.367,132.57,250c0-31.366,12.215-60.855,34.395-83.035S218.633,132.571,250,132.571 M250,122.142
			c-70.615,0-127.858,57.244-127.858,127.858c0,70.613,57.243,127.859,127.858,127.859c70.615,0,127.858-57.246,127.858-127.859
			C377.858,179.386,320.615,122.142,250,122.142L250,122.142z"/>
		<g>
			<path d="M229.389,435.24l-0.336-5.203c4.084-0.264,8.217-0.672,12.286-1.209l0.685,5.17
				C237.839,434.551,233.589,434.969,229.389,435.24L229.389,435.24z M254.544,431.906l-1.03-5.109
				c4.015-0.811,8.055-1.766,12.011-2.844l1.37,5.031C262.827,430.092,258.672,431.076,254.544,431.906L254.544,431.906z
				 M279.02,425.244l-1.702-4.93c3.873-1.338,7.75-2.824,11.522-4.418l2.027,4.805C286.988,422.34,283.002,423.867,279.02,425.244
				L279.02,425.244z M302.387,415.383l-2.344-4.656c3.654-1.838,7.301-3.824,10.836-5.904l2.646,4.494
				C309.89,411.453,306.143,413.496,302.387,415.383L302.387,415.383z M324.234,402.523l-2.936-4.309
				c3.383-2.309,6.734-4.756,9.959-7.283l3.215,4.105C331.158,397.635,327.713,400.152,324.234,402.523L324.234,402.523z
				 M344.191,386.891l-3.479-3.883c3.053-2.736,6.05-5.607,8.906-8.535l3.73,3.645C350.411,381.125,347.331,384.076,344.191,386.891
				L344.191,386.891z M361.9,368.756l-3.965-3.387c2.662-3.115,5.249-6.355,7.691-9.637l4.182,3.115
				C367.298,362.221,364.638,365.553,361.9,368.756L361.9,368.756z M377.037,348.432l-4.382-2.826
				c2.218-3.436,4.351-6.994,6.334-10.572l4.56,2.527C381.51,341.242,379.317,344.898,377.037,348.432L377.037,348.432z
				 M389.322,326.266l-4.721-2.217c1.739-3.703,3.377-7.516,4.865-11.334l4.857,1.895
				C392.793,318.535,391.11,322.457,389.322,326.266L389.322,326.266z M232.445,316.77c-3.821,0-7.688-0.281-11.493-0.838
				l0.753-5.158c3.993,0.582,8.054,0.846,12.052,0.77l0.093,5.215C233.384,316.764,232.915,316.77,232.445,316.77L232.445,316.77z
				 M246.713,315.469l-0.941-5.129c3.948-0.725,7.871-1.783,11.658-3.143l1.763,4.906
				C255.139,313.561,250.94,314.693,246.713,315.469L246.713,315.469z M208.393,313.158c-4.108-1.197-8.168-2.672-12.07-4.385
				l2.097-4.773c3.694,1.621,7.541,3.02,11.432,4.152L208.393,313.158L208.393,313.158z M270.959,306.764l-2.532-4.559
				c3.516-1.953,6.897-4.207,10.05-6.699l3.233,4.092C278.338,302.262,274.72,304.674,270.959,306.764L270.959,306.764z
				 M184.927,302.848c-3.648-2.209-7.186-4.684-10.519-7.354l3.262-4.068c3.155,2.529,6.506,4.873,9.959,6.965L184.927,302.848
				L184.927,302.848z M398.537,302.65l-4.973-1.568c1.229-3.902,2.345-7.9,3.316-11.881l5.065,1.234
				C400.949,294.527,399.802,298.639,398.537,302.65L398.537,302.65z M291.165,290.791l-3.851-3.516
				c2.713-2.973,5.197-6.186,7.383-9.549l4.373,2.842C296.729,284.17,294.069,287.609,291.165,290.791L291.165,290.791z
				 M164.936,286.832c-2.955-3.076-5.738-6.379-8.274-9.818l4.196-3.096c2.403,3.26,5.041,6.387,7.839,9.303L164.936,286.832
				L164.936,286.832z M404.536,278.006l-5.142-0.873c0.684-4.035,1.206-8.137,1.555-12.197l5.195,0.445
				C405.785,269.582,405.243,273.83,404.536,278.006L404.536,278.006z M305.204,269.195l-4.776-2.094
				c1.607-3.672,2.928-7.512,3.925-11.414l5.054,1.289C308.338,261.154,306.926,265.264,305.204,269.195L305.204,269.195z
				 M238.696,268.082c-2.239,0-4.494-0.223-6.701-0.664c-0.822-0.164-1.637-0.35-2.425-0.557l1.317-5.045
				c0.7,0.184,1.411,0.346,2.13,0.49c3.054,0.607,6.206,0.725,9.289,0.332l0.655,5.176
				C241.55,267.992,240.115,268.082,238.696,268.082L238.696,268.082z M149.723,266.209c-2.072-3.738-3.918-7.645-5.487-11.611
				l4.849-1.916c1.487,3.758,3.235,7.459,5.198,10.998L149.723,266.209L149.723,266.209z M255.717,263.508l-2.609-4.516
				c3.348-1.932,6.229-4.467,8.564-7.531l4.147,3.162C263.063,258.236,259.665,261.227,255.717,263.508L255.717,263.508z
				 M217.408,261.516c-3.741-2.416-7.061-5.406-9.87-8.887l4.057-3.275c2.462,3.049,5.37,5.668,8.644,7.785L217.408,261.516
				L217.408,261.516z M406.7,252.66h-5.214v-0.305c0-3.974-0.165-8.008-0.491-11.98l5.197-0.425
				c0.338,4.112,0.509,8.291,0.509,12.419L406.7,252.66L406.7,252.66z M311.484,244.161l-5.204-0.326
				c0.077-1.216,0.115-2.451,0.115-3.67c0-2.763-0.198-5.549-0.589-8.284l5.161-0.737c0.427,2.977,0.643,6.014,0.643,9.021
				C311.61,241.491,311.567,242.836,311.484,244.161L311.484,244.161z M271.689,242.509l-5.049-1.303
				c0.136-0.525,0.258-1.058,0.365-1.597l5.113,1.018C271.993,241.262,271.85,241.889,271.689,242.509L271.689,242.509z
				 M140.3,242.368c-1.042-4.148-1.818-8.4-2.308-12.642l5.179-0.599c0.465,4.015,1.201,8.042,2.186,11.968L140.3,242.368
				L140.3,242.368z M200.926,241.11c-1.587-4.181-2.49-8.561-2.684-13.017l5.209-0.226c0.169,3.899,0.96,7.731,2.349,11.391
				L200.926,241.11L200.926,241.11z M399.477,228.178c-0.673-4.023-1.525-8.068-2.534-12.026l5.052-1.288
				c1.045,4.098,1.93,8.288,2.626,12.452L399.477,228.178L399.477,228.178z M302.911,220.275c-1.353-3.749-3.096-7.376-5.181-10.785
				l4.449-2.721c2.268,3.708,4.164,7.656,5.637,11.735L302.911,220.275L302.911,220.275z M142.57,216.973l-5.213-0.085
				c0.068-4.259,0.419-8.564,1.041-12.801l5.16,0.757C142.966,208.858,142.635,212.939,142.57,216.973L142.57,216.973z
				 M204.778,216.258l-5.042-1.326c1.121-4.263,2.777-8.362,4.924-12.182l4.546,2.554
				C207.275,208.739,205.786,212.426,204.778,216.258L204.778,216.258z M393.41,204.377c-1.334-3.853-2.847-7.701-4.5-11.438
				l4.77-2.108c1.71,3.869,3.277,7.854,4.657,11.843L393.41,204.377L393.41,204.377z M290.49,199.966
				c-2.727-2.918-5.758-5.564-9.007-7.864l3.014-4.257c3.538,2.504,6.835,5.386,9.804,8.562L290.49,199.966L290.49,199.966z
				 M216.259,195.827l-3.753-3.619c3.048-3.16,6.492-5.929,10.24-8.229l2.728,4.444
				C222.101,190.493,219.001,192.985,216.259,195.827L216.259,195.827z M146.047,192.889l-5.042-1.333
				c1.088-4.114,2.4-8.208,3.902-12.167l4.875,1.847C148.346,185.029,147.089,188.949,146.047,192.889L146.047,192.889z
				 M271.07,186.225c-3.639-1.586-7.473-2.813-11.392-3.642l1.08-5.102c4.265,0.903,8.435,2.237,12.396,3.964L271.07,186.225
				L271.07,186.225z M236.247,183.558l-1.526-4.985c4.208-1.288,8.567-2.033,12.956-2.215l0.215,5.21
				C243.949,181.731,240.03,182.401,236.247,183.558L236.247,183.558z M383.477,181.911c-1.955-3.584-4.084-7.13-6.328-10.54
				l4.355-2.866c2.322,3.529,4.527,7.199,6.551,10.91L383.477,181.911L383.477,181.911z M154.711,170.042l-4.656-2.349
				c1.912-3.791,4.047-7.523,6.345-11.093l4.385,2.823C158.585,162.84,156.542,166.414,154.711,170.042L154.711,170.042z
				 M369.971,161.391c-2.519-3.213-5.204-6.36-7.979-9.353l3.822-3.546c2.873,3.098,5.652,6.355,8.261,9.681L369.971,161.391
				L369.971,161.391z M167.932,149.503l-4.065-3.265c2.655-3.306,5.516-6.512,8.505-9.528l3.704,3.669
				C173.214,143.268,170.474,146.338,167.932,149.503L167.932,149.503z M353.266,143.381c-3.016-2.752-6.184-5.41-9.415-7.9
				l3.183-4.131c3.346,2.578,6.626,5.33,9.748,8.18L353.266,143.381L353.266,143.381z M185.125,132.146l-3.304-4.034
				c3.284-2.688,6.745-5.238,10.288-7.573l2.871,4.353C191.584,127.129,188.27,129.57,185.125,132.146L185.125,132.146z
				 M333.811,128.396c-3.433-2.214-6.999-4.306-10.598-6.219l2.448-4.604c3.727,1.982,7.419,4.148,10.975,6.441L333.811,128.396
				L333.811,128.396z M205.531,118.693l-2.406-4.627c3.769-1.958,7.681-3.742,11.629-5.297l1.912,4.851
				C212.886,115.11,209.139,116.816,205.531,118.693L205.531,118.693z M312.131,116.866c-3.746-1.605-7.611-3.074-11.488-4.364
				l1.647-4.947c4.015,1.336,8.017,2.856,11.894,4.518L312.131,116.866L312.131,116.866z M228.271,109.729l-1.397-5.024
				c4.092-1.138,8.291-2.073,12.479-2.778l0.864,5.142C236.208,107.745,232.188,108.64,228.271,109.729L228.271,109.729z
				 M288.83,109.106c-2.03-0.495-4.102-0.953-6.156-1.361c-1.949-0.389-3.928-0.731-5.881-1.021l0.762-5.159
				c2.039,0.302,4.105,0.66,6.138,1.065c2.126,0.423,4.27,0.897,6.37,1.408L288.83,109.106L288.83,109.106z M252.375,105.677
				l-0.32-5.205c4.243-0.261,8.552-0.3,12.779-0.118l-0.225,5.21C260.562,105.389,256.438,105.426,252.375,105.677L252.375,105.677z
				"/>
		</g>
		<polygon points="227.216,465.375 164.854,429.369 227.216,393.363 		"/>
	</g>
</g>
</svg>
